<?xml version="1.0" standalone="no"?>
<!DOCTYPE svg PUBLIC "-//W3C//DTD SVG 1.1//EN" "http://www.w3.org/Graphics/SVG/1.1/DTD/svg11.dtd" >
<svg xmlns="http://www.w3.org/2000/svg">
<metadata>Generated by IcoMoon</metadata>
<defs>
<font id="FamCode" horiz-adv-x="1024">
<font-face units-per-em="1024" ascent="819" descent="-205" />
<missing-glyph horiz-adv-x="1024" />
<glyph unicode="&#x20;" horiz-adv-x="0" d="" />
<glyph unicode="&#x21;" glyph-name="exclam" horiz-adv-x="1025" d="M484 195l-27.5 388.5v162.5h111.5v-162.5l-26-388.5h-58zM460.5 13v102.5h103.5v-102.5h-103.5z" />
<glyph unicode="&#x22;" glyph-name="quotedbl" d="M402.5 486.5l-25 139.5v120h102.5v-120l-22.5-139.5h-55zM568 486.5l-24.5 139.5v120h102.5v-120l-24-139.5h-54z" />
<glyph unicode="&#x23;" glyph-name="numbersign" horiz-adv-x="1026" d="M280.5 0.5l43.5 213h-84.5v74.5h99.5l37 181.5h-136.5v74.5h151.5l43.5 214.5h75l-43.5-214.5h157.5l43.5 214.5h75.5l-43.5-214.5h86.5v-74.5h-101.5l-37.5-181.5h139v-74.5h-154l-43.5-213h-75l43 213h-157l-43.5-213h-75zM414 288h157l37.5 181.5h-157.5z" />
<glyph unicode="&#x24;" glyph-name="dollar" horiz-adv-x="1026" d="M488.5-92.5v90q-67.5 8.5-109.75 30.25t-73 70.25-35.75 118.5l90.5 17q10.5-72.5 37-106.5 38-48 91-53.5v286.5q-55.5 10.5-113.5 43-43 24-66.25 66.5t-23.25 96.5q0 96 68 155.5 45.5 40 135 49v43h53v-43q78.5-7.5 124.5-46 59-49 71-134.5l-93-14q-8 53-33.25 81.25t-69.25 37.25v-259.5q68-17 90-26.5 42-18.5 68.5-45t40.75-63 14.25-79q0-93.5-59.5-156t-154-67v-91h-53zM488.5 695.5q-52.5-8-82.75-42t-30.25-80.5q0-46 25.75-77t87.25-49.5v249zM541.5 73.5q52.5 6.5 86.75 45.5t34.25 96.5q0 49-24.25 78.75t-96.75 53.25v-274z" />
<glyph unicode="&#x25;" glyph-name="percent" horiz-adv-x="1025" d="M346 526q0 43.5 24.5 74t71 30.5q42.5 0 70.25-27.25t27.75-80.25q0-52-28-80t-69.5-28q-41 0-68.5 27.75t-27.5 83.25zM441 588.5q-20 0-33.25-14.25t-13.25-53.25q0-35 13.5-49.5t33-14.5q20 0 33 14.5t13 53q0 35.5-13.25 49.75t-32.75 14.25zM288 13l368 690q-36 10-64 11t-60-17q-84-8-24 48 56 24 94 20t98-18 20-58-370.5-703q-81.5-73-61.5 27zM584 417q0 42.5 22.25 71.5t64.75 29q39 0 65-26t26-77.5q0-50-26.25-77t-64.25-27-62.75 27-24.75 80zM671 475.5q-22 0-35.25-13.75t-13.25-52.75q0-35.5 13.25-50.25t33.75-14.75q21 0 35.5 14.75t14.5 53.75q0 35.5-14.5 49.25t-34 13.75z" />
<glyph unicode="&#x26;" glyph-name="ampersand" d="M646.5 99.5q-44.5-49.5-97-74.25t-113.5-24.75q-112.5 0-178.5 76-53.5 62-53.5 138.5 0 68 43.75 122.75t130.75 96.25q-49.5 57-66 92.5t-16.5 68.5q0 66 51.75 114.75t130.25 48.75q75 0 122.75-46t47.75-110.5q0-104.5-138.5-178.5l131.5-167.5q22.5 44 35 102l93.5-20q-24-96-65-158 50.5-67 114.5-112.5l-60.5-71.5q-54.5 35-112.5 103.5zM463.5 481.5q58.5 34.5 75.75 60.5t17.25 57.5q0 37.5-23.75 61.25t-59.25 23.75q-36.5 0-60.75-23.5t-24.25-57.5q0-17 8.75-35.75t26.25-39.75zM590 170.5l-165 204.5q-73-43.5-98.5-80.75t-25.5-73.75q0-44.5 35.5-92.5t100.5-48q40.5 0 83.75 25.25t69.25 65.25z" />
<glyph unicode="&#x27;" glyph-name="quotesingle" d="M483.5 486.5l-23 137v122.5h102.5v-122.5l-24-137h-55.5z" />
<glyph unicode="&#x28;" glyph-name="parenleft" d="M568.5-202.5q-74.5 94-126 220t-51.5 261q0 119 38.5 228 45 126.5 139 252h64.5q-60.5-104-80-148.5-30.5-69-48-144-21.5-93.5-21.5-188 0-240.5 149.5-480.5h-64.5z" />
<glyph unicode="&#x29;" glyph-name="parenright" d="M455.5-202.5h-64.5q149.5 240 149.5 480.5 0 94-21.5 186.5-17 75-47.5 144-19.5 45-80.5 150h64.5q94-125.5 139-252 38.5-109 38.5-228 0-135-51.75-261t-125.75-220z" />
<glyph unicode="&#x2a;" glyph-name="asterisk" d="M346.5 611.5l23 71q79.5-28 115.5-48.5-9.5 90.5-10 124.5h72.5q-1.5-49.5-11.5-124 51.5 26 118 48l23-71q-63.5-21-124.5-28 30.5-26.5 86-94.5l-60-42.5q-29 39.5-68.5 107.5-37-70.5-65-107.5l-59 42.5q58 71.5 83 94.5-64.5 12.5-122.5 28z" />
<glyph unicode="&#x2b;" glyph-name="plus" d="M469.5 131.5v201h-199.5v84h199.5v199.5h85v-199.5h199.5v-84h-199.5v-201h-85z" />
<glyph unicode="&#x2c;" glyph-name="comma" d="M463.5 13v102.5h102.5v-102.5q0-56.5-20-91.25t-63.5-53.75l-25 38.5q28.5 12.5 42 36.75t15 69.75h-51z" />
<glyph unicode="&#x2d;" glyph-name="hyphen" d="M373.5 233v90.5h276.5v-90.5h-276.5z" />
<glyph unicode="&#x2e;" glyph-name="period" horiz-adv-x="1025" d="M461 13v102.5h102.5v-102.5h-102.5z" />
<glyph unicode="&#x2f;" glyph-name="slash" horiz-adv-x="1025" d="M370 0.5l212.5 758h72l-212-758h-72.5z" />
<glyph unicode="&#x30;" glyph-name="zero" d="M347.5 130v-2.5h349.5l-172.5 334zM522 729l351.5-712h-722.5z" />
<glyph unicode="&#x31;" glyph-name="one" d="M676.5 532v2.5h-349.5l172.5-334zM502-43l-351.5 712h722.5z" />
<glyph unicode="&#x32;" glyph-name="two" d="M496 394q-50 3.5-71.5 71 10.5 57 71.5 64 57.5-3.5 72-67.5-14.5-60.5-72-67.5zM671.5 567v2.5h-347.5l171.5-345zM498-52l-346 734h720z" />
<glyph unicode="&#x33;" glyph-name="three" d="M868.5 656l-354.5-712-358 712.5h128.5l170.5-335.5v341h114v-338.5l171.5 332.5h128z" />
<glyph unicode="&#x34;" glyph-name="four" d="M269 504h-2.5v-349.5l334 172.5zM868 329.5l-712-351.5v722.5z" />
<glyph unicode="&#x35;" glyph-name="five" d="M433 325q-3.5-50-71-71.5-57 10.5-64 71.5 3.5 57.5 67.5 72 60.5-14.5 67.5-72zM260 500.5h-2.5v-347.5l345 171.5zM879 327l-734-346v720z" />
<glyph unicode="&#x36;" glyph-name="six" d="M159 689.5l712-354.5-712.5-358v128.5l335.5 170.5h-341v114h338.5l-332.5 171.5v128z" />
<glyph unicode="&#x37;" glyph-name="seven" d="M755 151h2.5v349.5l-334-172.5zM156 325.5l712 351.5v-722.5z" />
<glyph unicode="&#x38;" glyph-name="eight" d="M591 329q3.5 50 71 71.5 57-10.5 64-71.5-3.5-57.5-67.5-72-60.5 14.5-67.5 72zM764 153.5h2.5v347.5l-345-171.5zM145 327l734 346v-720z" />
<glyph unicode="&#x39;" glyph-name="nine" d="M865-23l-712 354.5 712.5 358v-128.5l-335.5-170.5h341v-114h-338.5l332.5-171.5v-128z" />
<glyph unicode="&#x3a;" glyph-name="colon" horiz-adv-x="1025" d="M461 441.5v102.5h102.5v-102.5h-102.5zM461 13v102.5h102.5v-102.5h-102.5z" />
<glyph unicode="&#x3b;" glyph-name="semicolon" d="M463.5 441.5v102.5h102.5v-102.5h-102.5zM463.5 13v102.5h102.5v-102.5q0-56.5-20-91.25t-63.5-53.75l-25 38.5q28.5 12.5 42 36.75t15 69.75h-51z" />
<glyph unicode="&#x3c;" glyph-name="less" d="M269 333.5v84l485.5 205v-89.5l-385-158 385-159.5v-89.5z" />
<glyph unicode="&#x3d;" glyph-name="equal" d="M754 444h-484v84h484v-84zM754 221.5h-484v84h484v-84z" />
<glyph unicode="&#x3e;" glyph-name="greater" d="M754.5 333.5l-485.5-207.5v89.5l384.5 159.5-384.5 158v89.5l485.5-205v-84z" />
<glyph unicode="&#x3f;" glyph-name="question" d="M466 193.5q-0.5 18-0.5 27 0 53 15 91.5 11 29 35.5 58.5 18 21.5 64.75 62.75t60.75 65.75 14 53.5q0 52.5-41 92.25t-100.5 39.75q-57.5 0-96-36t-50.5-112.5l-92.5 11q12.5 102.5 74.25 157t163.25 54.5q107.5 0 171.5-58.5t64-141.5q0-48-22.5-88.5t-88-98.5q-44-39-57.5-57.5t-20-42.5-7.5-78h-86.5zM460.5 13v102.5h102.5v-102.5h-102.5z" />
<glyph unicode="&#x40;" glyph-name="at" d="M558 86.5q-29.5-34-65.5-54.5t-72-20.5q-40 0-77.5 23.5t-61 72.25-23.5 107.25q0 71.5 36.5 143.75t90.75 108.5 104.75 36.25q39 0 74.5-20.75t61-62.75l15 70h80l-64.5-303q-13.5-63.5-13.5-70.5 0-12 9.25-20.75t22.25-8.75q23.5 0 62 27.5 51 36 80.75 96.75t29.75 125.75q0 75.5-38.25 141t-114 104.75-167.25 39.25q-104.5 0-191.25-49.5t-134.25-141.75-47.5-198.25q0-111 47.5-191t137.75-118.25 199.75-38.25q117 0 196.25 40t118.75 96.5h81q-23-47-78.5-96.5t-132-78.25-184-28.75q-99.5 0-183.25 26t-142.75 77.75-89 118.75q-37.5 85.5-37.5 184.5 0 110.5 44.5 210.5 54.5 122.5 155 187.5t243.5 65q111 0 199.25-45.75t139.25-136.75q43.5-78 43.5-170 0-131-91.5-233-81.5-91-178-91-30.5 0-49.5 9.5t-28 27q-6 11.5-8.5 39zM341.5 209q0-62 29-96.5t66.5-34.5q25 0 52.75 15.25t53 45 41.5 75.75 16.25 92q0 61.5-30.25 95.5t-73.75 34q-28.5 0-53.75-14.75t-49-47.25-38-79-14.25-85.5z" />
<glyph unicode="&#x41;" glyph-name="A" d="M46 251h702v710h102v-812h-804v102zM44 61h894v906h42v-950h-936v44z" />
<glyph unicode="&#x42;" glyph-name="B" d="M44 247h702v710h102v-812h-804v102zM42 61h894v906h42v-950h-936v44zM280 509l200 212 192-212-196-196zM472 621l-100-104 104-108 104 100z" />
<glyph unicode="&#x43;" glyph-name="C" d="M280 257h468l0.5 704h91.5v-808h-664l-0.5 810.5 104.5-0.5v-706zM88 61h848v904h44v-948h-936v944h44v-900z" />
<glyph unicode="&#x44;" glyph-name="D" d="M280 257h468l-0.5 708h88.5v-808h-660v806.5l104-0.5v-706zM88 61h848v904h44l-4-948h-932v944h44v-900zM324 489l200 212 192-212-196-196zM512 597l-100-104 108-116 100 108z" />
<glyph unicode="&#x45;" glyph-name="E" d="M976 249h-704v716h-104v-816h808v100zM978 61h-892v904h-44v-948h936v44z" />
<glyph unicode="&#x46;" glyph-name="F" d="M980 249v-92h-804v808h100v-716h704zM978 61v-44h-936v948h44v-904h892zM336 489l200 212 192-212-196-196zM528 597l-100-104 108-116 100 108z" />
<glyph unicode="&#x47;" glyph-name="G" d="M756 733v-472h-718v-104h812v676h-812l-0.5-100h718.5zM942 915v-848h-906v-44h952v938h-952v-46h906z" />
<glyph unicode="&#x48;" glyph-name="H" d="M762 729l-718.5 0.5 0.5 99.5h812v-668h-812v96h718v472zM944 915h-906v46h952v-938h-952v44h906v848zM292 485l200 212 192-212-196-196zM480 601l-100-104 108-116 100 108z" />
<glyph unicode="&#x49;" glyph-name="I" d="M275 725h476v-468h-476v468zM939 913v-858h-848v858h848zM181 817v-656h648v656h-648zM45 965v-948h934v948h-934z" />
<glyph unicode="&#x4a;" glyph-name="J" d="M278 729v-468h476v468h-476zM942 917h-848v-858h848v858zM192 829h664v-660h-664v660zM48 961l943 1v-948l-943-1v948zM320 481l200 212 192-212-196-196zM508 589l-100-104 108-116 100 108z" />
<glyph unicode="&#x4b;" glyph-name="K" d="M278 719v-472h696v-94h-792v660h788l2-94h-694zM94 903v-850h884v-42h-932v936h928v-44h-880z" />
<glyph unicode="&#x4c;" glyph-name="L" d="M266 715v-472h696v-90h-784v660h780l2-98h-694zM94 907v-850h884v-42h-932v936h928v-44h-880zM336 485l200 212 192-212-192-196zM528 593l-100-104 108-116 100 108z" />
<glyph unicode="&#x4d;" glyph-name="M" d="M45 725h702l-1-710.5h91.5l-0.5 810.5h-792v-100zM47 917h890v-904h42v950h-932v-46z" />
<glyph unicode="&#x4e;" glyph-name="N" d="M48 725v100h800l-2-810.5-96 0.5v710h-702zM46 917v46h932v-950h-42v904h-890zM476 335l122 118-116 120-114-122zM292 449l200 212 192-212-196-196z" />
<glyph unicode="&#x4f;" glyph-name="O" d="M755 712h-472v-698h-100v792h660v-792h-88v698zM937 912h-852v-900l-40-4v952h934v-942h-42v894z" />
<glyph unicode="&#x50;" glyph-name="P" d="M755 714h-472v-698h-96v792h652v-792h-84v698zM937 906h-852l2-892.5h-42v940.5h934v-942h-42v894zM519 332l116 106-114 112-102-110zM324 440l200 212 192-212-196-196z" />
<glyph unicode="&#x51;" glyph-name="Q" d="M978 726h-700v-712h-94v804h792zM978 918h-890v-904h-42v944h932v-40z" />
<glyph unicode="&#x52;" glyph-name="R" d="M971 726h-700v-712h-94v800h794.5zM979 918h-890v-904h-44l2 944h932v-40zM513 362l110 102-110 102-100-100zM325 462l200 212 192-212-196-196z" />
<glyph unicode="&#x53;" glyph-name="S" d="M179 877.5h90.5l248.5-492.5 248 495.5 100 0.5-352-688zM37.5 877l59.5-0.5 425-865 437 867h27.5l-464.5-935.5z" />
<glyph unicode="&#x54;" glyph-name="T" d="M447.5 737l80-80 68 80-72 72zM527.5 881l140-144-144-152-144 148zM167.5 879l104-1.5 248.5-492.5 248 495.5 88-3.5-340-684zM39.5 875h52.5l428-863.5 437 867h27.5l-464.5-935.5z" />
<glyph unicode="&#x55;" glyph-name="U" d="M47.5 793l2-100 503-250-495.5-248-1.5-94 688 340zM39.5 921l4-46 872.5-434-872.5-432 5.5-32.5 935.5 464.5z" />
<glyph unicode="&#x56;" glyph-name="V" d="M187.5 505l-79.5-76 72-76 80 72zM40 429l144 144 159.5-148-163.5-136zM43.5 785l696-348-688-340 1.5 94 495.5 248-503 250zM39.5 925l945-480-935.5-464.5-5.5 32.5 872.5 432-872.5 434z" />
<glyph unicode="&#x57;" glyph-name="W" d="M969.5 785l2-98-495.5-250 495.5-248-2-100-684 352zM979.5 917v-48l-867-432 867-437v-27.5l-935.5 464.5z" />
<glyph unicode="&#x58;" glyph-name="X" d="M814 501l-72-68 72-68 80 72zM962 441l-144-148-152 140 148 148zM967.5 777l2-94-495.5-250 495.5-248-2-92-680 340zM985.5 917v-48l-867-432 867-437v-27.5l-947.5 464.5z" />
<glyph unicode="&#x59;" glyph-name="Y" d="M856 9h-114l-237.5 492.5-258.5-488.5-94-4 348 680zM980.5 14l-32 1-440 864-437-865h-27.5l464.5 933 472-930v-3z" />
<glyph unicode="&#x5a;" glyph-name="Z" d="M568 169l-84 68-65.5-72 65.5-68zM488 25l-140 140 144 156 144-152zM848 17l-105.5-2-246 494.5-248-495.5-108.5 3 356 676zM988.5 14l-32 1-440 864-437-865h-27.5l464.5 933 472-930v-3z" />
<glyph unicode="&#x5b;" glyph-name="bracketleft" horiz-adv-x="1025" d="M413-190.5v936.5h198.5v-74.5h-108.5v-787.5h108.5v-74.5h-198.5z" />
<glyph unicode="&#x5c;" glyph-name="backslash" horiz-adv-x="1025" d="M582.5 0.5l-212.5 758h72.5l212-758h-72z" />
<glyph unicode="&#x5d;" glyph-name="bracketright" horiz-adv-x="1025" d="M611.5-190.5h-198.5v74.5h108.5v787.5h-108.5v74.5h198.5v-936.5z" />
<glyph unicode="&#x5e;" glyph-name="asciicircum" horiz-adv-x="1025" d="M391.5 358h-92.5l176.5 400.5h72.5l177.5-400.5h-90.5l-123.5 298.5z" />
<glyph unicode="&#x5f;" glyph-name="underscore" horiz-adv-x="1026" d="M214.5-190.5v65h596.5v-65h-596.5z" />
<glyph unicode="&#x60;" glyph-name="grave" horiz-adv-x="1025" d="M606.5 610h-72.5l-115.5 140h120.5z" />
<glyph unicode="&#x61;" glyph-name="a" d="M698.5 649h120l1.5-634h-616l1 133h493.5v501z" />
<glyph unicode="&#x62;" glyph-name="b" d="M704.5 637l122.5-0.5v-623.5h-629.5v127.5h507v496.5zM504.5 391.5q59.5-2.5 67.5-67.5-5.5-54-65-59-56.5 8-61.5 56.5-3 59.5 59 70z" />
<glyph unicode="&#x63;" glyph-name="c" d="M322 138h377.5v502h125.5l2-627h-629.5v630h124.5v-505z" />
<glyph unicode="&#x64;" glyph-name="d" d="M333 134.5l373-1v502.5h124v-623.5l-620 0.5v626h123v-504.5zM521 395q59-2.5 67-68.5-5.5-54-66-53.5-54.5 2-60 51-3 60 59 71z" />
<glyph unicode="&#x65;" glyph-name="e" d="M322 641l-120.5-0.5v-627.5h621v128h-500.5v500z" />
<glyph unicode="&#x66;" glyph-name="f" d="M327 637v-499h489.5v-125h-609v623.5zM483 379q53.5 0.5 61.5-64-5-54-65.5-56-54 5-59.5 53.5-2.5 59.5 63.5 66.5z" />
<glyph unicode="&#x67;" glyph-name="g" d="M695 138.5l1 377.5h-493v125h613v-628h-616v125.5h495z" />
<glyph unicode="&#x68;" glyph-name="h" d="M695 138.5l1 377.5h-493v125h613v-628h-616v125.5h495zM484.5 391q58.5-2.5 67-68-5.5-54-65.5-56-55 4.5-60.5 53.5-3 60 59 70.5z" />
<glyph unicode="&#x69;" glyph-name="i" d="M317 503.5v-372.5h377.5v372.5h-377.5zM199 633.5h626.5v-618.5h-626.5v618.5z" />
<glyph unicode="&#x6a;" glyph-name="j" d="M301 515v-374.5h379.5v374.5h-379.5zM197 637.5h630.5v-622.5h-630.5v622.5zM484.5 397.5q60-2.5 68.5-67-5.5-54-63-55.5-60 4-65.5 52.5-3 59.5 60 70z" />
<glyph unicode="&#x6b;" glyph-name="k" d="M319 141v380.5h504.5v125.5h-626.5v-632h630v126h-508z" />
<glyph unicode="&#x6c;" glyph-name="l" d="M322 137.5v375.5h498.5v124h-620.5v-624h624v124.5h-502zM486 388.5q59.5-2.5 68-67.5-5.5-54-62.5-64.5-60 13.5-65 62-3 59.5 59.5 70z" />
<glyph unicode="&#x6d;" glyph-name="m" d="M704.5 11h121l1.5 624h-629.5v-124h507v-500z" />
<glyph unicode="&#x6e;" glyph-name="n" d="M708 11h123.5l1.5 620h-641.5v-123h516.5v-497zM482.5 381.5q60.5-2.5 69-67-5.5-53.5-66.5-57.5-57.5 6.5-63 55-2.5 59 60.5 69.5z" />
<glyph unicode="&#x6f;" glyph-name="o" d="M704.5 16h121l1.5 625h-629.5v-628h126.5v503.5h380.5v-500.5z" />
<glyph unicode="&#x70;" glyph-name="p" d="M704 18h121l1.5 629h-629.5v-632h126.5v507h380.5v-504zM499.5 392.5q59-2.5 67.5-68-6.5-49.5-68.5-51.5-52 2-58.5 49-2.5 59.5 59.5 70.5z" />
<glyph unicode="&#x71;" glyph-name="q" d="M317 13l3 501.5h508.5v124.5h-633v-626.5z" />
<glyph unicode="&#x72;" glyph-name="r" d="M316.5 25h-123.5l-1.5 620h641.5v-123h-516.5v-497zM542 395.5q-60.5-2.5-69-67 5.5-53.5 63.5-64.5 60.5 13.5 66 62 2.5 59-60.5 69.5z" />
<glyph unicode="&#x73;" glyph-name="s" d="M197.5 649h121l197-416 195 411h116.5l-312.5-663-312.5 662z" />
<glyph unicode="&#x74;" glyph-name="t" d="M194 639.5h121l197-407.5 197.5 409h117l-315.5-660-315.5 658.5h-1.5zM512.5 610.5q60-3 68-71.5-5-57-68.5-62-55 7.5-60.5 58.5-2.5 63 61 75z" />
<glyph unicode="&#x75;" glyph-name="u" d="M183 610.5v-118l408-196.5-408-195.5v-116l657.5 312.5-655.5 313.5h-2z" />
<glyph unicode="&#x76;" glyph-name="v" d="M189.5 622.5v-117.5l400-204.5-400-201v-119l645.5 321-643.5 321h-2zM211.5 304.5q2.5-61 66.5-65.5 59 1.5 70 60.5-14 61-63.5 67-62 2.5-73-62z" />
<glyph unicode="&#x77;" glyph-name="w" d="M837 626.5l-2-122-402-202.5 404-202v-119.5l-649.5 322.5 646.5 323.5h3z" />
<glyph unicode="&#x78;" glyph-name="x" d="M815 596.5l-1-117.5-375.5-195 376.5-194.5v-115l-605.5 310.5 603 311.5h2.5zM655.5 285.5q2.5-59.5 68.5-60.5 49.5-2 56.5 60.5-9.5 54-57 59.5-57.5 2.5-68-59.5z" />
<glyph unicode="&#x79;" glyph-name="y" d="M837 13h-123l-204 399-203-399h-120l324 641.5 326-638.5v-3z" />
<glyph unicode="&#x7a;" glyph-name="z" d="M831 13h-121l-200 404.5-199.5-404.5h-117l317.5 649.5 320-646.5v-3zM450 113.5q2.5-62 64-64.5 61-0.5 72.5 58.5-14 62.5-64.5 68-61 3-72-62z" />
<glyph unicode="&#x7b;" glyph-name="braceleft" d="M367 319v-81.5q38.5-1 62.75-21t32.25-54.25 8.5-117.75 3-110q4.5-42.5 16.75-67.75t30.25-40.5 46-23.25q19-5.5 62-5.5h28v78.5h-15.5q-52 0-69 18.75t-17 84.25q0 125-4.5 158.5-8 55.5-32 88.75t-68 51.75q57.5 27.5 81 72.75t23.5 152.75q0 97.5 2.5 116.5 3.5 33.5 19.75 46.75t63.75 13.25h15.5v78.5h-28q-49 0-71-8-32-11-53-37t-27.25-65.5-6.75-129.5-8.5-124.25-32.25-54.25-62.75-21z" />
<glyph unicode="&#x7c;" glyph-name="bar" horiz-adv-x="1022" d="M471.5-202.5v961h78.5v-961h-78.5z" />
<glyph unicode="&#x7d;" glyph-name="braceright" horiz-adv-x="1026" d="M657.5 319v-81.5q-38.5-1-62.75-21t-32.25-54.25-8.5-117.75-3-110q-4.5-42.5-16.75-67.75t-30.25-40.5-46-23.25q-19-5.5-62-5.5h-28v78.5h15.5q52 0 69 18.75t17 84.25q0 125 4.5 158.5 8 55.5 32 88.75t68 51.75q-57.5 27.5-81 72.75t-23.5 152.75q0 97.5-2.5 116.5-3.5 33.5-19.75 46.75t-63.75 13.25h-15.5v78.5h28q49 0 71-8 32-11 53-37t27.25-65.5 6.75-129.5 8.5-124.25 32.25-54.25 62.75-21z" />
<glyph unicode="&#x7e;" glyph-name="asciitilde" horiz-adv-x="1026" d="M257 291.5v102.5q53 60 139 60 30 0 63-8.75t94-34.75q34.5-14.5 51.75-19t34.75-4.5q32.5 0 67.25 19.5t61.75 49v-106q-32-30-64.75-43.5t-73.75-13.5q-30 0-57.25 7t-86.5 33.5-98.75 26.5q-32 0-60.25-13.75t-70.25-54.25z" />
<glyph unicode="&#xa0;" glyph-name="six1" d="M159 689.5l712-354.5-712.5-358v128.5l335.5 170.5h-341v114h338.5l-332.5 171.5v128z" />
<glyph unicode="&#xbf;" glyph-name="square" d="M106 255l405.5 416 406-413.5-112.5-122.5-296 297-288-288.5zM128 253l54-54 332 352 338-350 52 54-388 394zM232 169l-28 32 50 52 34-30 8 10-33 32 48 50 37-34 8 12-36 32 58 56 28-30 8 8-26 32 52 56 32-36 10 12-32 36 63 62 67-68-38-42 8-8 40 44 58-62-42-38 10-8 40 36 49-51-35-33 8-8 36 32 46-50-34-34 10-10 34 34 58-60-28-32 8-8 36 42-330 342-324-340 34-38z" />
<glyph unicode="&#xc0;" glyph-name="level" d="M332 17h-268q0 80 62 116t206 64v528q0 84 68 108 36 88 80 0 84-20 72-112l4-524q152-28 210-64t58-116h-332q36 32 0 96v584q-20 56-33-1v-601q33-6 17-54-40-28-76 4-8 44 24 52v600q-16 56-32 0v-584q-36-60-8-96h-52zM388 773q56-56 108 0-56 60-108 0zM512 541v-320q8-60 24 0v320q-12 80-24 0zM356 545v-320q8-60 24 0v320q-12 80-24 0zM108 49h224v120q-224-44-224-120zM560 49h216q4 80-216 116v-116z" />
<glyph unicode="&#xc1;" glyph-name="plumb" d="M332 13v708q0 84 68 108 36 88 80 0 84-20 72-112v-704h-60q36 32 0 96v584q-20 56-33-1v-601q33-6 17-54-40-28-76 4-8 44 24 52v600q-16 56-32 0v-584q-36-60-8-96h-52zM388 773q56-56 108 0-56 60-108 0zM512 541v-320q8-60 24 0v320q-12 80-24 0zM356 545v-320q8-60 24 0v320q-12 80-24 0z" />
<glyph unicode="&#xc2;" glyph-name="keys" d="M254 533q28-20 34-30t12-34-10-68l35-19 8 18q24 18 26-12l-6.5-17 439-236 19.5 31-30 16 23 35q40 32 40-20 60 24 79-41 46 30 48-24l-22-36-25 13-23-32 27-20q40-44-27-31l-569 309-9-15q-24-14-24 14l9 15.5-35 18.5q-35-43-61-53t-48-6-40 16-30 26-14 38 2 42 14 40 24 36 28 22 30.5 14 75.5-10zM545 298.5l116 65.5-10 18q-3.5 29 26 14l12-17.5 44.5 21.5q-7 18.5-12.25 46.75t6.75 52.5 37.75 40.75 60 14.5 48-11 22.25-20 18.25-25.75 17.75-38.75 8-54-21-50.25-44-30-53.25-1.75-67.75 44.5l-45-21.5 8-14q2-30-24-16l-12 16-102-59zM147.5 33q-65-22-14 29l48 29-20.5 35-51.5-31-32.5 51 36 21.5 14-23.5 30 18-16 24 37 21.5 15-25.5 28 16-16 26 32 20 36-54-54-30 20-34 217 121.5 41-22zM240 497q-52 12-70-2t-30-36-14-48 10-38 30-20 44 6 14 34 14 22 26 28-24 54zM784 495q-29-31-17.5-52t32-19.25 6.75-18.25-1-29.75 32.5-11 39.5 14.5 17.75 37.75-11 39-32 38-67 1zM814 123l56-28 20 32-56 28z" />
<glyph unicode="&#xc3;" glyph-name="feathers" d="M38 370q4 62 111 93 91 25 187-21l64-40 50-36 45-35-36-24q-67-20-75 10l-10 40-14-6 11-52.5q-7-31.5-29-7.5l-20.5 127v-72l6-60.5q-5.5-24.5-25.5-12.5l-4 82-9 49.5-8.5-47.5 7.5-92q-14-16-32 2l4 111-26.5 40 2.5-149q-14-22-34-2l-6.5 127q-3.5 43-17.5 19l4-140q-16-34-26 0l-4 136-10-6-12-110q-14-40-28 13.5v86.5l-11.5-7-8.5-81q-16-2-44 65zM504 319l48 36 48 31.5 82 47.5q54 32 103.25 38.5t127.75-30l41-29.5q30-53 2-103-52-68-42 30l-12-26q-4-68-10 14l-22.5 51 14.5-88q-10-47-30 3l-13.5 92.5-9 21.5 0.5-76 2-40q-4-54-26-8l-14.5 105-11.5 29.5 2.5-58.5 9-61q4.5-65-21.5-28l-11 62.5-8.5 61.5-20.5 13 11.5-53 14.5-67q-2-62-28-2l-12 46-15.5 60-14.5-18.5 11.5-56 15-45q-2.5-30.5-24.5 3.5l-34 92v-37l14.5-56q-16.5-19-40.5 11l-3.5 63.5q-16.5-60.5-80.5-44.5l-138-102-186-183 42 68 114 124 37.5 42zM551 287l215-197 48-72-200 191-91 58z" />
<glyph unicode="&#xc4;" glyph-name="bible" d="M100 687q176 116 392-20l4-544h24v540q172 152 392 16l16-592q-222 116-392 24h-56q-196 80-376-20zM76 621l-4-576 372 16h100l396-24-24 576 28 4 16-596-420 24-4-28-68-4-16 28-404-8v592zM562 177v-24q180 66 318-4v28q-142 78-318 0zM148 257l4-28q92 72 300 0v28q-192 68-304 0zM148 325l4-28q92 72 300 0v28q-192 68-304 0zM148 401l4-28q92 72 300 0v28q-192 68-304 0zM152 473l4-28q92 72 300 0v28q-192 68-304 0zM152 541l4-28q92 72 300 0v28q-192 68-304 0zM552 233l4-28q178 76 310 20l4 32q-132 72-318-24zM148 677l3.5-28q91.5 72 297.5-14l-2 28q-188 82-299 14zM148 613l4-28q92 72 301-6v26q-193 76-305 8zM561 657l-2-32q193 60 308-6l-8 32q-119 70-298 6zM551 575l-4-30 156 36-16-38-136-34v-40l130 42-14-42-30-10-24 20v-28l-66-18v-28l60 20 32-22-92-36-3-32 91 50-16-48-73-34v-32l67 38-9-30 36 48 44 12 40-40 68 54 18.5-7.5 29.5-54.5-1 44 38-14-2 40-51 24 20 16 31-4 4 32-32 10-6 28-18-14-26 6-10 52 90-40-4 26-100 42-10 32 112-36 2 30-122 36-11 34-25-4-12-22zM152 193l4-28q92 72 300 0v28q-192 68-304 0zM730 535l52-114-52-46-40 60zM730 491l-20-44h40zM718 423l12-20 16 16z" />
<glyph unicode="&#xc5;" glyph-name="square-compass-sun" d="M154-3l76 236-160 156q64-28 110 0t98-4l124 388-8 44 16 40 40 28 68 4 50-40 12-44-14-60h-8l-36-24-20-16-16-32-40-108-36-48-56-84-20-20zM494 609l24 48 20 32 32 28 20 4 244-720-108 224-236-220-224 196 20 36 204-192 220 204-44 88-180-168-172 156 16 28 156-136 167.5 147-23.5 49-8 8-28 40-92 144zM702 417q64 32 104-4t124 0l-164-160-12 36 96 72q-96 64-132 15zM446 853l-20-24 4-40 12-28 24-8 32-4 22 16 18 20 8 28-12 28-20 24h-32zM446 793l44 48 16-20-48-44zM418 745l-76-236v-36l76 116 52 120q-32 4-52 36zM262 365q-48 32-108-16l80-72zM483.5 453.5l27 35.5 4-43 31 25.5-8-43.5 42.5 7.5-27-32.5 47-10.5-43-14.5 38.5-28.5-42.5 3.5 23.5-39.5-39 21.5 11.5-43-34.5 25-8-36-23 32.5-22.5-36.5-7.5 40-31-21.5 15 36-38.5-14.5 15.5 36h-38.5l31 28.5-35 18.5 39 10.5-27.5 29 46.5-7.5-15.5 43 39-25 7.5 39z" />
<glyph unicode="&#xc6;" glyph-name="square-compass-moon" d="M154-3l76 236-160 156q64-28 110 0t98-4l124 388-8 44 16 40 40 28 68 4 46-32 24-48-22-64h-8l-36-24-20-16-16-32-40-108-36-48-56-84-20-20zM494 609l24 48 20 32 32 28 20 4 244-720-108 224-236-220-224 196 20 36 204-192 220 204-44 88-180-168-172 156 16 28 156-136 167.5 147-23.5 49-8 8-28 40-92 144zM482 509q60-12 78-36t30-42 4-58-50-66-84-16-58 34q72-16 104 4t38 70-62 110zM702 417q64 32 104-4t124 0l-164-160-12 36 96 72q-96 64-132 15zM454 845l-20-24 4-40 12-28 24-8 32-4 28 8 12 28 8 28-12 28-20 24h-32zM458 785l44 48 16-20-48-44zM418 745l-76-236v-36l76 116 52 120q-32 4-52 36zM262 365q-48 32-108-16l80-72z" />
<glyph unicode="&#xc7;" glyph-name="cornucopia-right" d="M390 875l56 12 52-8 12-24 12-36 4-44 12-28 8-28 12-36q8-36-12-80l-20-28-20-32-16-24-20-28 8-28 56-16 78-10 66-18 18-26 6-46 12-16 4-44 20-20 28-44 8-20 24-28-4-24-16-32 16-28 40-4 24-12 4-36-24-16-48 12-88-8-32 32-40 24-20-48-40-24-32 4-36 4-28 32-12-4-40-24-12 8-24 12-12 8-36 28-48 36-36 52-24 24-28 72-16 48 4 72 16 84 20 64 32 72 56 68 32 24 40 32-24 48 4 56 8 24 12 12zM346 647l-12-4-24-20 12-20 24 12 44 44 24 8 48-4 36-20 20-24 20 12v12l-4 8-36 20-40 16-48-4-40-16zM414 631l-20-12-28-16-36-32-32-24-20-16-36-32-4-20-8-24-8-36 20-4 12 36 24 32 24 24 56 52 44 24 28 4 20-20 32-12 4 20-4 20-16 32-32 8zM430 487l-44 40-40-24-40-44-28-28-20-36-32-40-8-16-4-20 4-28 4-16 4-20h16l16 28v28l20 24 16 24 24 20 12 32 16 20 24 32 28 8 28-20 16 8zM642 339l20-24 20 32-16 56-20 8-72 16-16 4-68-4-24-8-84-32-44-28-28-36-28-52-4-52 16-40 20-40 72-40 32-16 32-4-20 40-32 24-44 32-20 28-4 32v48l40 60 36 16 64 24 40 8 40 4 16 4 44-4 32-28v-28zM482 331l-32-20-16-44 4-28 48-12 40 20v48l-28 24zM422 171l12-32 44-20 36-4 12 40-24 44-48 4-20-4zM570 255l-4-32 44-28 40 24-12 44-32 20h-24zM758 95l-20 24-64 60-40-20 16-44 40-28 40-20h36zM578 179l-28 16v-56l4-40-36-16v-28l32-12 44 36 12 44-12 28zM678 255l12-28 8-28 36-40 24 12-24 52-44 52zM422 319l-36-28-16-48v-40l24-16 20 28-12 32 4 40zM530 359v-36l40-16 28 16-8 32zM422 835l-20-32 20-68 36-16 16 40v72l-28 12z" />
<glyph unicode="&#xc8;" glyph-name="cornucopia-left" d="M646 883l4-8 12-12 8-24 4-56-24-48 40-32 32-24 56-68 32-72 20-64 16-84 4-72-16-48-28-72-24-24-36-52-48-36-36-28-12-8-24-12-12-8-40 24-12 4-28-32-36-4-32-4-40 24-20 48-40-24-32-32-88 8-48-12-24 16 4 36 24 12 40 4 16 28-16 32-4 24 24 28 8 20 28 44 20 20 4 44 12 16 6 44 18 26 64 18 80 12 56 16 8 28-20 28-28 20-8 36-32 32q-12 24-4 72l16 40 8 28 12 28 4 44 12 36 12 24 52 8zM686 647l-24 20-40 16-48 4-40-16-36-20-4-8v-12l20-12 20 24 36 20 48 4 24-8 44-44 24-12 12 20-24 20zM618 631l-20 4-32-8-16-32-4-20 4-20 32 12 20 20 28-4 44-24 56-52 24-24 24-32 12-36 20 4-8 36-8 24-4 20-36 32-20 16-32 24-36 32-28 16zM602 487l-12-28 16-8 28 20 28-8 24-32 16-20 12-32 24-20 16-24 20-24v-28l16-28h16l4 20 4 16 4 28-4 20-8 16-32 40-20 36-28 28-40 44-40 24zM390 339v28l32 28 44 4 16-4 40-4 40-8 64-24 36-16 40-60v-48l-4-32-20-28-44-32-32-24-20-40 32 4 32 16 72 40 20 40 16 40-4 52-28 52-28 36-44 28-84 32-24 8-68 4-16-4-72-16-20-8-16-56 20-32zM550 331l-16-12-28-24v-48l40-20 48 12 4 28-16 44zM610 171l-12 28-20 4-48-4-24-44 12-40 36 4 44 20zM462 255l-12 28h-24l-32-20-12-44 40-24 44 28zM274 95l-8-28h36l40 20 40 28 16 44-40 20-64-60zM454 179l-16-28-12-28 12-44 44-36 32 12v28l-36 16 4 40v56zM354 255l-12 20-44-52-24-52 24-12 36 40 8 28zM610 319l16-32 4-40-12-32 20-28 24 16v40l-16 48zM502 359l-60-4-8-32 28-16 40 16v36zM610 835l-24 8-28-12v-72l16-40 36 16 20 68z" />
<glyph unicode="&#xc9;" glyph-name="swords-crossed" d="M109.5 511.5l-3 26 23.5 8 794-505-4-27.5-28-8zM532 321l356 216h36l-8-32-340-212zM432 257l44-28-376-232-28 12 12 28z" />
<glyph unicode="&#xca;" glyph-name="sword" d="M416 879q28 68 64 4l-16-24q40-96-4-164v-52h-28l4 52q-44 80-4 164zM312 615l52 24 52-16h60l56 16 56-24-52-24-60 8.5v-664.5q-32-72-60 0v665.5l-52-9.5zM448 695q36 80 0 152-32-84 0-152zM436 595v-660q8-33 20 0v660h-20z" />
<glyph unicode="&#xcb;" glyph-name="harp" d="M343.5 663.5l22.5 1.5-0.5-505-22-3v506.5zM406 665.5l18 1v-505.5l-18-4v508.5zM473 670l19.5 0.5v-483l-19-9zM540 674.5h18.5v-453.5l-18-15.5zM338.5 739.5q-13.5-17.5 2.5-31.5l257.5 15-6.5 45.5zM605.5 683l19 3.5v-420.5l-19-26.5v443.5zM614.5 766.5l5-39 41 1.5-8.5 41zM671.5 777.5l10-45q37.5 11 30 52zM540 788l204 19.5-17.5-149.5-12.5 67.5-37-17.5-358.5-27q-76 35-1 84zM679.5 684.5l22.5 14q30-171.5 3.5-401.5l21-25.5q42.5 240.5 8 345l22 162.5q25-188.5 20.75-324t-38.5-218.75-94-134.75-139.75-65.25-187.5-14.75q-69.5 39.5 0.5 94l92 7 74.5 18q111 37.5 155.75 92.75t53.25 157-14 294.25zM680.5 251.5q-53.5-89.5-154.25-126.75t-185.25-37.25q-16-21.5 1.5-39 69 0 126.25 10.75t94 25 69.25 42.75 71 96z" />
<glyph unicode="&#xcc;" glyph-name="square-compass-ea" d="M349 395l-28 24 112 358-8 44 16 40 40 28 68 4 43-38 14-44-17-62-36-24-20-16-16-32-40-108-36-48-56-84-20-20zM525 608l24 48 20 32 32 28 20 4 86-305-32-24-22 29-28 40-92 144zM477 853l-20-24 4-40 12-28 24-8 32-4 28 8 19 24 1 32-12 28-20 24h-32zM477 793l44 48 16-20-48-44zM449 745l-76-236v-36l76 116 53 130q-33-6-53 26zM320.5 231l196.5-190 362 342q-44-8-70 2t-66 2l-230-222-237.5 226q-29.5 13-59.5-2.5t-62-6.5zM255 237l24-28-112-200zM727 407q60 16 92 2t108-2l-347-348-59-55-220 206-204 200q79-22 113.5-5t82.5 5l224-194zM747 207l24 24 72-228z" />
<glyph unicode="&#xcd;" glyph-name="scroll" d="M87.5 607q-63.5-26-4-49 102-6.5 203.5-3 41.5 29 4 45.5-90.5 9.5-203.5 6.5zM686.5 114q-63.5-26-3.5-49 101.5-6.5 203.5-3 41 29 3.5 45.5-90.5 10-203.5 6.5zM87.5 114.5q-63.5-26-4-48.5 102-6.5 203.5-3.5 41.5 29.5 4 45.5-90.5 10-203.5 6.5zM108 660q-47-20.5-2.5-38 75-5 150.5-2.5 31 23 3 35.5-67 7.5-151 5zM678.5 610q-64-26-4-48.5 102-6.5 203.5-3.5 42 29.5 4 45.5-90.5 10-203.5 6.5zM707 660q-47.5-20.5-3-38 75-5 150.5-2.5 31 23 3 35.5-67 7.5-150.5 5zM711.5 47q-47.5-20-3-38 75-5 150.5-2 31 22.5 3 35.5-67 7-150.5 4.5zM108 47q-47-20-2.5-38 75-5 150.5-2 31 22.5 3 35.5-67 7-151 4.5zM159-16l45 3q26.5-55-7.5-110l-37.5-4q-34 62.5 0 111zM862 139h-152l-1 402.5 153 1.5v-404zM242 135l-124.5-0.5-5.5 409h131.5zM769 786l39 1q32.5-53-1.5-108l-37.5-3.5q-34 61.5 0 110.5zM151.5 783h40.5q31-52-3-107.5l-37.5-3.5q-34 62 0 111zM758.5-8.5l37.5-0.5q34.5-51.5 0-107l-37.5-3q-33.5 62 0 110.5zM270 539q100-24 202-22t210 30l8-416q-104-32-206-32t-214 32v408zM452 411l-34.5-83.5-2.5 6q-19 5.5-25-0.5t-28 1l38-44-32-75 44 59 56-63 70 67 45-59-33 77 44 43q-22-4-27 0.5t-24.5-0.5l-10.5-9q-37 83-33 90t1.25 17-12 17-22.75 4.5-20-12.5 6.5-35zM440 307l32 72 40-73-40-39z" />
<glyph unicode="&#xce;" glyph-name="compass" d="M172-3l76 236 172 540-8 44 16 40 40 28 68 4 50-40 12-44-14-60h-8l-36-24-20-16-16-32-40-108-36-48-56-84-20-20zM512 609l24 48 20 32 32 28 20 4 244-720-124 248-80 164-8 8-28 40-92 144zM464 853l-20-24 4-40 12-28 24-8 32-4 22 16 18 20 8 28-12 28-20 24h-32zM464 793l44 48 16-20-48-44zM436 745l-76-236v-36l76 116 52 120q-32 4-52 36z" />
<glyph unicode="&#xcf;" glyph-name="grip" d="M166 517q-88-128-76-280l96-24q56 49 103.5 4.5 29.5 34 60.5 34t53.5-4 55.75-38-3.75-68.5q49.5 0 65.5-97 22-45 39.5-44t27.5 13 9.75 21.5-14 30 1.25 6.5 28.5-27.25 31.25-9 21.25 19.75-15.75 41.75-36 48.75 9.5 6.75 38.5-39.5 31-29 27.5 6.75-18.75 68.25-4 34 37.75-61.75 37.25-28.5 17 30.25-21.75 64-37 77.5-72.75 63-72.5 59.25-80.75 20-97.5-24-54.75 11.5-28 55.5-159 58zM340 461q52 12 64 28t46 22 67.5 20 72.5-14.5 97.5-37.5 173 38q101.5-128 109-273.5-94.5-47.5-182-76-24.5 84-52 122t-58.5 50.75-59.5 44.75-67.25 42.5-93.25-9.25-73.5-19.75-43.5 62.5zM222 217q36 8 50.25-11.5t4.25-42-32.5-25-36 19.75 14 58.75zM338 233q26.5 8 37.5-3.75t3.75-25-19.5-17.25-12.25-27.5-1.25-40.5-21.25-14.25-25 28.75 2.5 52.25 35.5 47.25zM407.5 223q26.5 0 38-21.25t3.75-38.25-17.5-31.5-9.75-34.75-11-29-31 7-17.75 46 15.75 57.75 24.5 46zM454 129q28 0 36.75-45t-2.25-56.75-26 1-19.75 34.75-7.5 39.5 18.75 26.5z" />
<glyph unicode="&#xd0;" glyph-name="mallet" d="M507.5 153q-164.5 6-180 55t7.75 73 56.5 36.75 14 26.25 1.75 25.5 1.75 21.25 29.5 30.5 31.5 93 0 143.5 3.75 81.75 2.25 16.25 5.25 13.75-12.25 23.75 20.5 28 44-1.25 25.25-26.5-8.75-22.5 5.25-16.5-3.5-17.75-5.5-82-6.25-143.25 23.25-91.5 27.25-33.75 7.25-21.25 2-21 8.75-27.25 55.5-39.5 8-69.25-164.75-55zM500 687q-19.5-95-12-129.5t8.75-1.5 3.25 131zM502.5 741q-3-9-10.5-1t5.5 17.5 5-16.5zM466 373q-32-14.5-19.75-25t16-1.25 3.75 26.25zM449.5 302.5q-59.5-56.5-47.25-74.25t29.25-0.75 18 75zM508.5 812q-31-14-18.5-28.5t13.25-2 5.25 30.5zM478 425q-29.5-27.5-18.25-31.75t13.5 6.25 4.75 25.5zM250 97.5v29.5q13-26.5 130-42.5t237.75-2.5 148.25 47v-26.5q-36-31.5-150.75-46.5t-233.5 2.25-131.75 39.25zM208 50l3 31q14-31 154.5-50.5t281.75-2.25 168.75 52.75l-3.5-37.5q-20.5-25-165.5-42.75t-278.5 3-160.5 46.25zM302 134v25l32-16q163.5-29.5 258.75-14.75t113.25 32.75v-22.5q-34-22.5-118-34t-172.25 1-113.75 28.5z" />
<glyph unicode="&#xd1;" glyph-name="apron" d="M198 513l6-412q312-108 634-4l-8 428-316-280zM218 513l296-252 296 260q-308-48-592-8zM182 529q308-36 660 4l8-448q-292-100-662 0zM830 541l16-4q24 40 44-10t10-104 10-88 2-82 6-86-2-90-6-78 12 2 12 76 2 86-6 90-4 86-10 88-18 106-68 8zM186 537q-20 36-38 44t-38-8-26-44 14-76 6-96 8-90-4-74 0-80 4-88-12-2-8 84-2 82 2 76-6 88-4 100-8 84 28 48 50 14 34-62z" />
<glyph unicode="&#xd2;" glyph-name="gavel" d="M31.5 286q-10.5 13 57.75 47t75.75 19.5zM44.5 267.5q-23-1.5-5.5 15l128 63.5q27 5 8.5-13.5zM51.5 262.5l131.5 65q80-74.5 110-183.5l-135-67q-80 75.5-106.5 185.5zM166 73.5l129.5 63.5q25.5 2 10.5-16.5l-129.5-63.5q-25.5-5-10.5 16.5zM182 52l129.5 63.5q10.5-13.5-54.25-47t-75.25-16.5zM820.5 564.5l33.5-56.5q21-22 24.5 11.5l-35 57q-24.5 13.5-23-12zM777 554.5q0 25.5 24.5 12l45.5-73.5q-3.5-27-28-10zM385 332.5l31.5-51q220.5 72 383 200.5l-29.5 53.5q-203-65-385-203zM241.5 282.5q3.5 26.5 29.5 16l47.5-76q-3.5-31-28-17zM855.5 590q0 30 26.5 13l40-73.5q-1.5-23-24.5-11.5zM329 327.5q3.5 37 31.5 13.5l49-83.5q-5.5-37.5-35-10zM290.5 296.5l38.5-66q26-14 24.5 14.5l-38.5 62.5q-26.5 21-24.5-11zM908 573q-14 33.5 21 53.5 42 16.5 63-20 11-36.5-24.5-57-42-6.5-59.5 23.5z" />
<glyph unicode="&#xd3;" glyph-name="gauge" d="M539.5 344v-87h-9.5v87h9.5zM278 345.5v-87.5h-9.5v87.5h9.5zM763.5 345.5v-88h-9v88h9zM91 345.5v-88h-8v88h8zM128 345.5v-88h-9v88h9zM689.5 345.5v-87.5h-9v87.5h9zM204 345.5v-88h-9.5v88h9.5zM389.5 345.5v-87.5h-9v87.5h9zM726 345.5v-88h-9.5v88h9.5zM576.5 344v-87h-9.5v87h9.5zM913 344v-87h-8.5v87h8.5zM166 345.5v-87.5h-9v87.5h9zM240.5 344v-87h-8.5v87h8.5zM614 345.5v-88h-9v88h9zM314 344v-88.5h-9v88.5h9zM426.5 345.5v-87.5h-8.5v87.5h8.5zM950 344v-88.5h-8.5v88.5h8.5zM351.5 345.5v-88h-9v88h9zM877 345.5v-88h-10v88h10zM839.5 344v-87h-9v87h9zM464 345.5v-87.5h-9v87.5h9zM501 344v-87h-8.5v87h8.5zM801 345.5v-88h-9.5v88h9.5zM651.5 345.5v-88h-9v88h9zM979.5 258.5v111.5h-935v-112z" />
<glyph unicode="&#xd4;" glyph-name="light" d="M509 711q14-36 7-44.25t-17 1.5 10 42.75zM495.5 648.5h27v-113h-27v113zM470.5 535.5h80q3.5-14-14.5-11h-54q-18 0-11.5 11zM489 521.5h43.5q7-30.5-9.5-33.5h-23.5q-17 1.5-10.5 33.5zM482.5 477h58.5q-7 9.5-31.25 9t-27.25-9zM474.5 474h74.5q13.5-15-38-14.25t-36.5 14.25zM479.5 457.5h61.5v-22.5h-61.5v22.5zM487 431h48.5v-269h-50zM474.5 159h74.5q9-14-37.25-14t-37.25 14zM477.5 132.5h65.5q8 11-34.75 10.5t-30.75-10.5zM469 128.5h85.5q5-7-1.25-10.5t-5.75-8.5-13.5-3.5h-51q-13.5 0-12.25 4.25t-5 7.75 3.25 10.5zM482.5 103.5h53v-28h-53v28zM472 43.5h77l-3 27.5h-71zM442 11h140l-23 28h-94.5zM501 642h15.5l0.5-101.5h-16v101.5z" />
<glyph unicode="&#xd5;" glyph-name="lights" d="M358.5 781q17.5-41 8.75-50.75t-21.25 1.5 12.5 49.25zM340 710.5h33.5v-128.5h-33.5v128.5zM305 575.5h99.5q4.5-16-17.5-13h-67.5q-22.5 0-14.5 13zM325.5 555.5h54.5q8.5-35-12-38h-29q-21.5 1.5-13.5 38zM315 503h73q-9 11.5-39.25 10.5t-33.75-10.5zM307 499h92.5q16.5-17-47.25-16.25t-45.25 16.25zM313 477h76.5v-25.5h-76.5v25.5zM319.5 444.5h62q-15-21.5 0-40.5h-61.5q20 19-0.5 40.5zM465 178.5h92.5q11.5-16-46.25-16t-46.25 16zM468.5 148.5h82q9.5 12.5-43.75 11.75t-38.25-11.75zM458 143.5h106.5q6.5-8-1.5-12t-7.25-9.5-16.75-4h-63q-17 0-15.75 4.75t-6.25 8.75 4 12zM475 115h65.5q-23-16.5 0-31.5h-65.5q19.5 15 0 31.5zM461.5 46.5h96q20.5 17-3.5 32h-88.5q-24.5-16.5-4-32zM424 10l168 1q16 11-10.5 16 5.5 11-11.5 15h-117.5q-27.5-1-15-15-30-6.5-13.5-17zM345 705l-1.5-121h24.5l-1.5 121h-21.5zM478.5 304h62q-16-64.5 0-122.5h-62q17.5 59.5 0 122.5zM637.5 443h62q-16.5-19 0-37.5l-61 1q14 17.5-1 36.5zM478.5 490.5h62q-19.5-43 0-86.5h-62q23 43.5 0 86.5zM630.5 475.5h76.5v-25.5h-76.5v25.5zM471.5 518.5h76v-25.5h-76v25.5zM626 495.5h92.5q17-17.5-47-16.75t-45.5 16.75zM465 537.5h92.5q17-17.5-47-16.75t-45.5 16.75zM632 500h73q-9 11-39.25 10.25t-33.75-10.25zM475 540.5h72.5q-8.5 11-38.75 10.25t-33.75-10.25zM639.5 554h54q9-35-11.5-38h-29.5q-21 1.5-13 38zM483 591.5h54q9-35-11.5-38.5h-29.5q-21 2-13 38.5zM620.5 574h99.5q4.5-16-17.5-13h-67.5q-22.5 0-14.5 13zM460 607h99.5q4-15.5-18-12.5h-67.5q-22 0-14 12.5zM651 709h33.5v-129h-33.5v129zM491 739h33.5v-128.5h-33.5v128.5zM658 708l-2-120.5h25l-1.5 120.5h-21.5zM496 734l-1.5-120.5h25l-2 120.5h-21.5zM672 776.5q18-41.5 9-51t-21.25 1.5 12.25 49.5zM508 807q17.5-41 8.75-50.5t-21.25 1.5 12.5 49zM318.5 398.5h62q-12.5-23 0-29.5t26.75-4 42.75 20.5v-55.5q-28.5 20-49.75 18.5t-40.75 13.5-41 36.5zM699 398.5h-60.5q14-21.5 6-28.75t-25.75-6.25-44.25 17.5l1.5-54q27 21.5 51 20.75t39 14.25 33 36.5zM480 395h60.5q23 0 25-14l2-54q1.5-17.5-25-16h-64q-23 0-19.5 16v55.5q5 11 21 12.5z" />
<glyph unicode="&#xd6;" glyph-name="chalk" d="M176 245l80-226q-104-6-156 8t-38 61 114 157zM336 473q32 52 64 68t102 34 100-52 66-126l4-376-148-12zM124 515l200-520 80 44 56-16-204 528-40 32zM100 521l112 84 60-40 220-548-100-56-92 12zM332-15l64-8 52 32-44 12zM684 445q84 56 172 0l-4-420q-72-52-160 4zM712 433v-16q60-20 128 0v12q-68-16-128 4zM872 237l-4-192q108-8 86 76t-82 116z" />
<glyph unicode="&#xd7;" glyph-name="square-compass-fc" d="M328 395l-28 24 112 358-8 44 16 40 40 28 68 4 36-44 16-36-4-64h-8l-36-24-20-16-16-32-40-108-36-48-56-84-20-20zM504 608l24 48 20 32 32 28 20 4 244-720-108 224-236-220-220 206-204 200q79-22 113.5-5t82.5 5l224-194 167.5 147-23.5 49-8 8-28 40-92 144zM720 417q64 32 104-4t124 0l-164-160-12 36 96 72q-96 64-132 15zM456 853l-20-24 4-40 12-28 24-8 32-4 28 8 12 28 8 28-12 28-20 24h-32zM456 793l44 48 16-20-48-44zM428 745l-76-236v-36l76 116 52 120q-32 4-52 36zM299.5 231l196.5-190 220 204-44 88-180-168-237.5 226q-29.5 13-59.5-2.5t-62-6.5zM234 237l24-28-112-200z" />
<glyph unicode="&#xd8;" glyph-name="steps" d="M142 148v50l536-99 80 29v59l82 41 2 60 92 43v-188l-260-108zM168 206l62 16-2 60 74 25v56l88 32 528-56-100-48v-60l-82-39 2-61-60-16zM248 219l464-85-2 64 86 41v56l-464 60v-55l-84-25v-56zM278 271l84 24 392-56-68-33zM159 180l-1-22 501-110v41z" />
<glyph unicode="&#xd9;" glyph-name="acacia" d="M319.5 85l156 28.5-78-44.5 111.5 41 2-49.5 45.5 43.5 69.5-5.5-86 36.5 3 142.5q91.5 25.5 128.75 102.75t60.75 178.25q-64.5-98-86.5-158t-93-88.5q-193 114-118.5 373-71-158-50.75-230.75t115.25-148.25q-20.5-25.5-116.75-22.25t-157.25 120.25q6.5-73 47.25-106t103.25-39.5 123.5 9.5l-7-85 7-47.5zM712 349q48-32 120-4 80 12 44 124-18.5 57-76 136-7 139-98.5 107.5-108 198.5-321.5 72.5 0-76-69.25-90t-62.75-106q-81-31.5-108-189 27-136 59.5-168.5t128.5-36.25 109.5 43.75q-125 0-164 23.5t-57.5 69.25 1.5 140.75q51-72.5 103.5-121.5t140.5-33.5l-64.5 54q-47.5 50.5-44 113.5 3.5 98 27.25 153.25t77.75 111.75q-3.5-132.5-10-233.5l23.5-66 34-57 54-38q40.5 12.5 61 38l10 31.5q23.5 76 54 120 20.5 41 64.5 38 40.5-107.5-9-150-21.5-39.5-28-84zM673.5 381.5l13.5 38-2-154-10-1.5zM671.5 254h17v-34l-20.5-4zM628 117q0 80 32 101.5v36q-51-8-69.5-28.5zM697 256l-1.5-36q20.5-11 28.5-39.5l-10-1.5 5-17.5q17-20.5 25-6.5t34 20 6 34h-16q-6.5 37.5-71 47zM236 13q336 20 395 51.5t82.75 42.5 88.25 13.5l62 0.5q-16-20-6-38t28-38 78-32h-728z" />
<glyph unicode="&#xda;" glyph-name="celestial-globe" d="M408 849q64 8 106 10t84-10 102-42 92-60 62-70 52-94 24-130-12-124-48-108-82-104-102-68-120-34-150 10-140 60-88 74-56 84-32 100-8 94 12 98 34 100 56 80 70 62 144 72zM626 137h-8q32-16 44-34t46-4 60 44 14 18-32-12-16 16-24 26-64-6zM302 301q28-52 42-70t32-10 30 26 30 30 30 24 8 28-50 8-62-6-60-30zM490 257q-16-32 0-46t32-14 12-18-32-12-8-8 42-26 30-6 16 42 2 52-22 14-36-4-36 26zM222 425q-24 16-18-16t26-44 26-8 2 18 8 22 46 2 44 2-20 10-38 26-22 24-24-8-30-28zM222 521q-52 52-54 30t-16-30-10-20 20-14 28 10 32 24zM494 665l12-28 20 32zM758 585l12-28 20 32zM662 353l12-28 20 32zM334 117l12-28 20 32zM430 757l12-28 20 32z" />
<glyph unicode="&#xdb;" glyph-name="terraqueous-globe" d="M400 857q64 8 106 10t84-10 102-42 92-60 62-70 52-94 24-130-12-124-48-108-82-104-102-68-121-31-150 10-139 57-88 74-56 84-32 100-8 94 12 98 34 100 56 80 70 62 144 72zM294 787l-52-40-64-68-48-100-24-156 24-128 52-96 84-80 108-60 82-14-4 24-12 48 8 36 12 36 52 36-12 32-24 28-24 16-60 16-72-16-64-20-52-4-24 8v16l24 16 8 20-16 16-20-12-22 20-8 32-4 56 20 28 26 12 20-4 32-4 24-48 20-36 16 20-8 44 8 40 20 12 44 24 32 12-4 20-24 36 44 12 24-8 28-4 40 12v64l-14 28h-26l-28-36-60 32-20-12-36-40-44 8 36 28-4 36 36 8 22 28-26 36zM536 725l24-32 16-80 8-20 20-28 16 20 32 68-4 76-4 32-68-20-16-12zM696 605l8-28 8-12 20 20v32l-20 12zM780 609l-12-56-32-32-32-48 12-44 16-8 32 32 12 36 8 8 8-12 40 12 20 4 24-60 20 36-4 20 8 12-4 60-22 40-18 32-26 34-36 42-34 32-28 16-20-48 8-52 56-4 4-16v-36zM740 381l-28 16-60-16-12-44v-24l4-16 12-32 36-40 40-8 32 8h20l8-24-20-36-32-24-12-12-4-24 26 8 58 60 52 88 30 54 14 58-2 24-26 12-48-12-16-28-32 4-48 8h8zM470 847q-32-8-48-13t-32-23 12-32 26-30 18-10 52 2 62 8 54 20 46 6 32 4-12 20-66 24-120 24h-24z" />
<glyph unicode="&#xdc;" glyph-name="tuscan" d="M446 677h136v-660h-136v660zM410 777h204l-4-52h-200v52zM414 709h192l4-24h-188zM404 7h228v-47l-228-1v48zM365-49h308v-44h-308v44z" />
<glyph unicode="&#xdd;" glyph-name="doric" d="M444.5 704.5l119-2 32.5-675.5h-192zM397.5 776.5h212v-31h-212v31zM384 15h228l-4-48h-224v48zM340-45h308v-44h-312zM492.5 679.5l-11-620.5h42l-8 620.5h-23zM534.5 678.5l10.5-619.5h32.5l-25 618.5zM455.5 680.5l-27.5-621.5h32l17.5 621.5h-22zM404.5 739.5h199q0-13-2.5-23t-24.5-9h-155q-12 5-15 11.5t-2 20.5z" />
<glyph unicode="&#xde;" glyph-name="ionic" d="M442.5 650.5q23 5 38.5 14.5t17.5 33.5h14q-3-29 10-35t33-10l13.5-5.5 28-622h-192zM406 777h196l0.5-31.5-196.5-0.5v32zM384 15h228l-4-48h-224v48zM348-41h308v-44h-312zM492 651l-10.5-592h42l-7.5 592h-24zM537 651l8-592h32.5l-21 583.5zM453.5 646.5l-25.5-587.5h32l14 592zM429.5 737l17.5 3h124q8-2 14-9t10-15 5-15 0.25-14-5.25-14.5-10-11.5-12.75-5.5-13.25-0.5-14 4-12.25 5.5-6.75 8-2.75 10.5 0 11 0.25 11-6 1-13.5-3.5-15 3.5-2.75-3.5 2.75-11.5-8-14-16-13-22-4-17.25 7-10.25 16-4.75 19 1.5 18 17.25 17zM470 729q20-12 30-11t30 13zM463.5 710q8.5 2 4.5 9t-14 10-21.25-4.5-13-17 1.25-17.5 7.25-14 16-6 20.75 6 9 13-11 12-20 2 0-7 14-4 0.75-5.5-11.25-6.5-12.75 5.5-5.75 17.5 7 15 21 2zM537 709q-6 6-1.25 7t11.25 3 14.25 1 13.5-9 5.75-15.5-2.5-12.5-8-6.5-10-2-9.5 2-8 7-2 8.5 8.75 7.5 8-3 4-9 8.75 1.5 0 10-13 9-16-2-10-5-1-10 5.75-16.5 12.25-8.5 17-1.5 15.75 5.5 7.25 16-1.25 19-6.75 13.5-9.75 8-11.5 2.5-12.25-1.5-12.75-6 3.25-12.5z" />
<glyph unicode="&#xdf;" glyph-name="corinthian" d="M453 659q17-1 25 0t30 1l26-2q15-3 32 2l16-4 29-630h-192zM420 859h196l0.5-31.5-196.5-0.5v32zM404 19h228l-4-48h-224v48zM364-41h308v-44h-312zM513 643l-11.5-580h42l-8.5 580h-22zM555 643l10-580h32.5l-22.5 578zM469 645l-21-582h32l11 582h-22zM446 675q0 14-3 19l-6 10t-5 11 5 8 5 8-4 8l-6 6t-1 6 2 6-3 6-3 6 1 11 3 8 9 3 19 0 17-4 9-13 7-4 4 10 7 6 20 1 20-3 9-8 5-10 7 0 11 11 11 10 10 3 10-5 4-15-3-11-3-5v-7t-4-8-5-7 5-5 2-10-7-15-6-11-5-4 0-5 2-17h-138zM422 810v10h190v-10l-16-12-150-2zM458 738l-5-33.5 19-10.5 8 6 2 12-4 18-10 10zM496 700l5-8.5 13 4.5 6 22-4 20-14 2-10-16zM532 702l12-6 6 6 10 12 6 16-4 12-10 2-18-14zM444 752l37-2.5q-13 18.5-21 25.5t-14 2-5-11 3-14zM503 749.5l39-1q3 13-4.5 21.25t-15.5 6.25-12-7.75-1-10.75l-3-3.5zM580 757.5l14-9.5 4 8-4 20-10-8zM494 688l-10-8 8-6 10 2zM528 690l-12-10 12-6 14 6zM572 690l-10-8 13-7.5-3 7.5v8zM462 689.5l-3-11 4-7 5 4.5zM570 703.5l15-1 7 17-6 19-4-3z" />
<glyph unicode="&#xe0;" glyph-name="composite" d="M457 643q17-1 25 0t30 1l26-2q15-3 32 2l16-4 29-630h-192zM423 902h196l0.5-31.5-196.5-0.5v32zM408 3h228l-4-48h-224v48zM364-57h308v-44h-312zM517 627l-11.5-580h42l-8.5 580h-22zM559 627l10-580h32.5l-22.5 578zM473 629l-21-582h32l11 582h-22zM449 660q0 14-3 19l-6 10t-5 11 5 8 5 8-4 8l-6 6t-1 6-0.75 3.75-9.25 6.25-5.5 15.5 6 7.5 10.5-7 15.5-7 16.5-4.5 9.5 1.5 9 3.5 9.25 3.75 8.5 9 6.25 14.25 9.5 7.5 16.5-18.5 15.5-19.5 12-3 9.5-2 13.5 2.5 18.5 9 11.5 10 6-6-2.75-13.25-9.25-5.25-3-5v-7t-4-8-5-7 5-5 2-10-7-15-6-11-5-4 0-5 2-17h-138zM428 855v10h190l-0.5-13.5-29-11-136.5 0.5zM462 722l-5-33.5 19-10.5 8 6 2 12-4 18-10 10zM500 684l5-8.5 13 4.5 6 22-4 20-14 2-10-16zM536 686l12-6 6 6 10 12 6 16-4 12-10 2-18-14zM448 736l37-2.5q-12.5 9-20 11t-22.5 4.5-6-1.5 11.5-11.5zM507 733.5l39-1q-11.5 10-14 15.5t-8 12.5-13-1.5-19.5-14.5l7-12zM567.5 734.5l30.5-2.5 4 8 2.5 7.5-12-7zM498 672l-10-8 8-6 10 2zM532 674l-12-10 12-6 14 6zM576 674l-10-8 13-7.5-3 7.5v8zM466 673.5l-3-11 4-7 5 4.5zM574 687.5l15-1 7 17-6 19-4-3zM444.5 834l17.5 3h124q8-2 14-9t10-15 5-15 0.25-14-7.25-13.75-11-10.75-11-5.5-12.25-1.25-13.75 3.25-12.25 5.5-6.75 8-2.75 10.5 0 11 0.25 11-6 1-13.5-3.5-15 3.5-2.75-3.5 2.75-11.5-8-14-16-13-20.75-2.25-17.25 7-11.5 14.25-4.75 19 1.5 18 17.25 17zM481.5 807q8.5 2 4.5 9t-14 10-21.25-4.5-13-17 1.25-17.5 7.25-14 16-6 20.75 6 9 13-11 12-20 2 0-7 14-4 0.75-5.5-11.25-6.5-12.75 5.5-5.75 17.5 7 15 21 2zM553 809q-6 6-1.25 7t11.25 3 14.25 1 13.5-9 5.75-15.5-2.5-12.5-8-6.5-10-2-9.5 2-8 7-2 8.5 8.75 7.5 8-3 4-9 8.75 1.5 0 10-13 9-16-2-10-5-1-10 5.75-16.5 12.25-8.5 17-1.5 15.75 5.5 7.25 16-1.25 19-6.75 13.5-9.75 8-11.5 2.5-12.25-1.5-12.75-6 3.25-12.5zM490.5 827.5q17.5-13.5 27.5-12.5t30 13z" />
<glyph unicode="&#xe1;" glyph-name="boaz" d="M436 528h155q23-254 7.5-515h-166q-23.5 257.5 3.5 515zM391-1.5h259.5l2.5-138-261 1zM341.5-193q-3.5 38.5 42.5 42.5h263.5q46.5 4 46.5-42.5h-352.5zM506 507.5l-4-467.5 27-4v471.5h-23zM548.5 508.5q7.5-230.5 4-468.5l23 3.5q4 230.5-2 465h-25zM457.5 510.5q-17.5-240-6-470.5l23.5 1.5q-8 232.5 13 469h-30.5zM421.5-16.5v-96h208.5l-2 96h-206.5zM435 790h161q44.5-17-6-26.5h-155q-44.5 11.5 0 26.5zM436 670h163v-101h-162zM445.5 652l1-69.5 30.5 35zM461.5 655.5l22.5-26.5 27.5 26.5h-50zM462 583.5l49-1-23 22.5zM495.5 615.5l32-30.5 28.5 36-27 31zM544.5 581.5h38l-15 25zM546 656l20.5-20 13.5 21zM405.5 720.5q20-4 24-15.75t-2-22.25-18.5-3.75-11.5 19.25 8 22.5zM444.5 720.5q19-4 22.75-15.75t-2-22.25-18.5-3.75-11.75 19.25 9.5 22.5zM493 721q14-11.5 17.75-23t-6-18.25-19.25-3-9.5 18.25 17 26zM537.5 720.5q15.5-6 17.5-17.5t-5.75-21.25-17.25-2-8.75 20.25 14.25 20.5zM578.5 716.5q11.5 0 15.25-11.75t-5.75-22.25-18.25-3.75-7.75 19.25 16.5 18.5zM614 721q19.5-2 21.5-15.5t-8.75-23-18.5-3.75-6.75 18.25 12.5 24zM436 561.5h161q44.5-17-6-27h-155q-44.5 11.5 0 27zM593 739.5q17.5 42 27 1.5l-23-26.5zM554 744q15.5 31 29 4l-25-32.5zM501 740.5q15.5 30.5 29 3.5l-15.5-30.5zM455.5 742q15.5 27 29 0l-11.5-28.5zM408 744q19.5 29 31-3.5l-7.5-29zM600.5 734.5l11.5 11.5-10 1.5zM560.5 732l11 16-9 0.5zM516 728.5l4.5 16.5-9.5-1.5zM471.5 728.5l2.5 15.5-8.5-1.5zM428.5 729.5v15.5l-9.5 2zM575 622l10.5-16.5v29.5zM470 823h76q28-12 0-24h-76q-32 8 0 24zM510.5 827.5q-79.5 8.5-98 85 10.5 83.5 98.5 91.5 92-16 96-96-8-68-96.5-80.5zM449 963q-16-28-18-46t2-30 16-24 34-20 34-4 14 4 1.75 11.75-10.75 16.75-17.75 4.25-15.25-8.75-28 4-14 22 16 2 16 6-4 24-4 20 2 16-24 2zM480 973q28 16 28 14t-2-24-10-4-16 14zM537 982l-16-16 8.5-17.5 7.5-10.5 16 12 16 8 4-16-12-8-20-12 4-16 4-4 23.5-0.5 4.5-15.5-28.5-38.5 28.5 18.5q24 36 16 56t-14 34-42 26zM486-28.5q16.5-4 29-2.25t21.5 0.75 15.25-5.25 6.25-16.5-1.25-19.5-6-10.75-11.25-5.25-17.5 1.75-21.25 2.25-13.5-5.25 2.75 3.75 13.5 7.75 18.25-0.75 15.5 2.5 6 12.25-2 16.75-23.5 7.75-31.75 10z" />
<glyph unicode="&#xe2;" glyph-name="jachin" d="M436 528h155q23-254 7.5-515h-166q-23.5 257.5 3.5 515zM391-1.5h259.5l2.5-138-261 1zM341.5-193q-3.5 38.5 42.5 42.5h263.5q46.5 4 46.5-42.5h-352.5zM506 507.5l-4-467.5 27-4v471.5h-23zM548.5 508.5q7.5-230.5 4-468.5l23 3.5q4 230.5-2 465h-25zM457.5 510.5q-17.5-240-6-470.5l23.5 1.5q-8 232.5 13 469h-30.5zM424.5-18.5v-96h208.5l-2 96h-206.5zM435 790h161q44.5-17-6-26.5h-155q-44.5 11.5 0 26.5zM436 670h163v-101h-162zM445.5 652l1-69.5 30.5 35zM461.5 655.5l22.5-26.5 27.5 26.5h-50zM462 583.5l49-1-23 22.5zM495.5 615.5l32-30.5 28.5 36-27 31zM544.5 581.5h38l-15 25zM546 656l20.5-20 13.5 21zM405.5 720.5q20-4 24-15.75t-2-22.25-18.5-3.75-11.5 19.25 8 22.5zM444.5 720.5q19-4 22.75-15.75t-2-22.25-18.5-3.75-11.75 19.25 9.5 22.5zM493 721q14-11.5 17.75-23t-6-18.25-19.25-3-9.5 18.25 17 26zM537.5 720.5q15.5-6 17.5-17.5t-5.75-21.25-17.25-2-8.75 20.25 14.25 20.5zM578.5 716.5q11.5 0 15.25-11.75t-5.75-22.25-18.25-3.75-7.75 19.25 16.5 18.5zM614 721q19.5-2 21.5-15.5t-8.75-23-18.5-3.75-6.75 18.25 12.5 24zM436 561.5h161q44.5-17-6-27h-155q-44.5 11.5 0 27zM593 739.5q17.5 42 27 1.5l-23-26.5zM554 744q15.5 31 29 4l-25-32.5zM501 740.5q15.5 30.5 29 3.5l-15.5-30.5zM455.5 742q15.5 27 29 0l-11.5-28.5zM408 744q19.5 29 31-3.5l-7.5-29zM600.5 734.5l11.5 11.5-10 1.5zM560.5 732l11 16-9 0.5zM516 728.5l4.5 16.5-9.5-1.5zM471.5 728.5l2.5 15.5-8.5-1.5zM428.5 729.5v15.5l-9.5 2zM575 622l10.5-16.5v29.5zM470 823h76q28-12 0-24h-76q-32 8 0 24zM512.5 829.5q-79.5 8.5-98 85 10.5 83.5 97 89.5 93.5-14 97.5-94-8-68-96.5-80.5zM482-35.5q16.5-4 29.25-2.25t22 0.75 15.75-5.25 6.5-16.5-0.75-18.5-1.25-17.75-5.75 7.5-6.5 27-8.75 9.75-23.25 3.5-27.25 11.75zM487.5 877q14-6 16-4.5t0.5 6.5-2.5 5-14-7zM528.5 886q-7-5 2-9.5t12.5-2 2.5 9-8 7.5zM560.5 907v-2q-5-1 2-2t3-4-4.5-9.5 4-2 13.5 19.5l-7 9zM576.5 929l3-12 14 4-13 6 3 14zM473.5 869q-1 17-4.5 6.5t4.5-18.5l13 8zM430.5 881l14-14 7-10 5 5-10 12zM509.5 990l5-9 2 8zM520.5 940l5-9 2 8zM559.5 858l5-9 2 7zM473.5 941l5-9 2 8zM448.5 956l5-9 2 8z" />
<glyph unicode="&#xe3;" glyph-name="wages" d="M457 388q-201 29 0 39 205-18.5 0-39zM347.5 396q109.5-46.5 219.5-2.5 17.5-91.5-19.5-114.25t-49-61.25q-35.5-20.5-74 0-26.5 36-59.5 62.5t-17.5 115.5zM415.5 205q44.5-20.5 95 2.5 29.5-2.5 0-20.5-50.5-23-97.5-2.5-36 23 2.5 20.5zM427.5 169q38.5-23 71 0 12-82.5 74.5-113.5-53.5-23-105.5-23t-108 26q53.5 28 68 110.5zM335.5 43q92-30 147-27.25t105 29.75q30 2.5 3-15.5-32.5-20.5-100.75-27t-154.25 22q-20.5 12.5 0 18zM555 483q-10-16-2.5-28t26.75-5.5 18.5 19-14.75 16.75-28-2.25zM614 523q36-18 66-22t53.75 8.5 49.5-9-5.25-12.5-47-28 14-93 20.5-109-89.5-213q-123 222-79 300t34 94-34-1-50 2-13 46.75 48.75 13.5 31.25 22.75zM300 53q-20 140-22 163t4 98 48 140 122.5 118q-32.5 9-13.25 5.25t8 9 19.25-5.75l4 2q-18.5 24.5-4.75 15.75t9 4.5 15.75-10.25l5 0.5q-7.5 28 0.25 14.75t8.75 0 4-12.25l9-0.5q3 34 4 15.25t7.5-1.25 0.5-18.5l6-3q14.5 31 9.75 15.5t7.5-6.5-9.25-12l9-3q27.5 6 15.25-2t0-9-2.75-11l-15.5 4q-4-27-8.5-11t-7.5 19-6.5-11-6.5 1.5-6 3-6.5 2.5-5.75 2.25-8.5 0-5-9-4-4-11-5-5-1-7 2-6.5-5-32-7-72.25-72.75-51-106-13-129 13-180zM208 505q60-64 56.5-160t13.5-210q-42 286-70 370zM352 237q-34-76-49-172-7 156 49 172zM684 549q116-24 0-40-124 24 0 40zM460 415q-160 2-4-16 140 8 4 16z" />
<glyph unicode="&#xe4;" glyph-name="square-compass" d="M162-5l76 236-160 156q64-28 110 0t98-4l124 388-8 44 16 40 40 28 68 4 43-32 14-54-12-48-41-34-20-16-16-32-40-108-36-48-56-84-20-20zM498 607l24 48 20 32 32 28 20 4 244-720-108 224-236-220-224 196 20 36 204-192 220 204-44 88-180-168-172 156 16 28 156-136 167.5 147-23.5 49-8 8-28 40-92 144zM719 412q63 37 103 1t124 0l-164-160-12 36 96 72q-96 64-137 23zM454 853l-20-24 4-40 12-28 24-8 32-4 28 8 12 28 8 28-12 28-19 18-33 6zM454 793l44 48 16-20-48-44zM426 745l-76-236v-36l76 116 52 120q-32 4-52 36zM270 365q-48 32-108-16l80-72zM377 402l14 7 8.5 42.5 19.5 27 30.5 23 38 0.5 38.5-6.5 28-22 10.5-32.5 3.5-17 9-3-2-7h-52.5v8.5h5l-1.5 30.5-30 15.5-30-2-19-22-5.5-35.5-3.5-42.5 10.5-30.5 19.5-18.5h33.5l17.5 17 6 19.5-15 7.5v17h58l-3.5-85h-19.5l-6 12.5-11.5-9-29.5-7h-30l-25.5 8-32.5 19.5-17.5 34-1.5 32-1 9.5z" />
<glyph unicode="&#xe5;" glyph-name="square-compass-master" d="M164-3l76 236-160 156q64-28 110 0t98-4l124 388-8 44 16 40 40 28 68 4 36-44 16-36-4-64h-8l-36-24-20-16-16-32-40-108-36-48-56-84-20-20zM504 605l24 48 20 32 32 28 20 4 244-720-108 224-236-220-224 196 20 36 204-192 220 204-44 88-180-168-172 156 16 28 156-136 167.5 147-23.5 49-8 8-28 40-92 144zM722 415q58 34 98-2t124 0l-164-160-12 36 96 72q-96 64-130 18zM460 853l-20-24 4-40 12-28 24-8 32-4 28 8 12 28 8 28-12 28-20 24h-32zM460 793l44 48 16-20-48-44zM432 745l-76-236v-36l76 116 52 120q-32 4-52 36zM276 365q-48 32-108-16l80-72z" />
<glyph unicode="&#xe6;" glyph-name="coffin" d="M96 357l132 92 524 84 196-48v-176l-484-180h-272l-100 72zM484 157l432 160v132l-432-132v-160zM440 149v160h-220v-160h220zM120 329v-116l68-52v144zM144 357l64-24 248 4 440 136-148 36-508-80zM748 333q36 44 96 32l-4-4q-48-8-92-36v8zM276 233q44 40 100 4v-8q-52 24-100 0v4zM544 261q36 44 96 32l4-4q-56-8-100-36v8z" />
<glyph unicode="&#xe7;" glyph-name="rough-ashlar" d="M860 649q20-116-4-156t-8-90 6-90-2-124q-80-48-124-64t-72-36-74-32-163.5-64q-114.5 36-152.5 60t-80 32-66 40-84 57.5q4 58.5 10 88.5t-8 72-4 80-2 134q76 36 106 58t70 36 66 36 130 42q96 0 126-26t96-24 86-18 148-12zM44.5 544.5q23.5-79.5 15.5-117.5t0-76 2-74-13.5-90q71.5-30 89.5-54t76-40 82-36 127-47q65 47 117 57t82 30 78 38 135 64.5q-23 73.5-11 107.5t2 88 4 96 5 125q-59-63-109-61t-86-36-90-34-142-68q-96 68-160 70t-78 24-48 22-77.5 11.5zM412 701q-92-16-114-34t-66-30-70-36-97-44q47-8 87-10t52-20 74-24 130-62q80 64 128 62t94 38 84 34 108.5 49q-106.5 1-134.5 17t-88 18-74 22-114 20z" />
<glyph unicode="&#xe8;" glyph-name="perfect-ashlar" d="M864 609l-4-416-420-188-368 180-4 352 364 164zM84 529l4-340 360-168 396 180v396l-412-164zM432 689l-332-152 340-92 388 156z" />
<glyph unicode="&#xe9;" glyph-name="trowel" d="M64 45l296.5 368 196.5-30-118-73.5q-13-38.5 26.5-34.5l114.5 69-31.5-190.5zM585 389l-119-75q-26-32 12-18l122 72zM600 397l16-20q36-16 68 13l-50 66q-44-22-34-59zM650 468l254 188q96-2 66-94l-270-162zM380 339l-148-192 244 60 12 52-36.5-25q-69.5 9-52.5 71.5l37 25.5zM666 464l14-18 238 164q8 16 30 14-28 24-44 12zM364 395l-244-317 408 92 20 132-34-24-12-88-324-76 194 253 98-17 38 21z" />
<glyph unicode="&#xea;" glyph-name="beehive" d="M232 85q-52 100 36 140-92 76 0 152-52 88 52 152-56 80 20 126t216 36 196-50 16-108q76-68 40-168 56-72 12-160 60-68-4-132-148-56-302-54t-282 66zM624 497q-160-20-272 12-100-40-48-148-100-44 0-152-92-56-48-112l52-16q-48 60 40 112-96 112-8 160-44 100 16 120 100-36 276-8zM488 65q96-16 168 8l-8 108q-76 200-148-8zM244 785l40-16-24-32zM144 449l40-16-24-32zM592 789l40-16-24-32zM892 157l40-16-24-32zM692 761l40-16-24-32zM72 193l40-16-24-32zM176 517l40-16-24-32zM840 669l48-12-32-36zM572 229l40-16-24-32zM84 613l40-16-24-32z" />
<glyph unicode="&#xeb;" glyph-name="hope" d="M268 589l168-60 8 40-24 12-16 36 20 32 36 4 60-20 12-36-24-36h-28l-20-40 164-56 8 20q48-44-20-48l8 16-166 49-78-285q92-32 158-27 40 10-6 27l38 21 36-36-12-32q-98-41-230 7-36-39-40 12-160 48-188 132l16 24 30 15 38-43q-36 8-32-24 32-24 152-68l90 285-162 59-12-12q-36 48 24 52l2-22zM264 577v0zM432 609l16-16 36-12 24 16-16 20-44 8zM40 435l88-58q-40-48-8-96l52-48q72-40 106-64t70-26 94-10 114 7 78 48-30 75q-84 22-112-40l-88 14 16 64 200-16 148 8 86 26 64 40h-112l4 24 156-4v-280l32 4v-48l-62 2v96l-34-6q-96-84-270-98-196-10-366 26-136 44-198 118-52 116-28 242zM236 341l100-24-12-56-108 40q52 4 20 40zM456 419l236-18v-32l-44 2-8-62-212 16zM348 345l-12 48-36 4 4 32 72-4z" />
<glyph unicode="&#xec;" glyph-name="atack" d="M206 387q80 96 152 8l20-44q-112-32-136-64 40-20 140 4-40-96-152-232-164 172-172 300 40 124 148 28zM250 287q224 76 488 136l-11 53h-12q11 43 43 11l-12-8 16-60q72 44 156 40 16 40 40 8l8-24q-8-40-36-12-76-36-161-31l17-57 12 4q-8-40-48-12l16 4-17 47q-255-67-499-99zM743 410q-260-61-364-93 112 20 368 81z" />
<glyph unicode="&#xed;" glyph-name="iacute" d="M406.5 312.5q113-38 215.5-2-102.5 55-215.5 2zM352.5 310.5q68 43.5 158 46.25t163.5-46.25q-48-36-129.5-40.25t-192 40.25zM331.5 293q189.5-89 358 1.5-65.5-81.5-2.5-154.5 51-59.5-28-111.5-169.5-41.5-265.5-2.5-107.5 50-69 117.5 59 78.5 7 149.5zM516 674.5q-24.5-86.5-8.75-107t-7.25-39.25 5.25-40.25 3.5-41.25 7.25-79.75q-10.5 61.5 16 78.25t0 41-12.5 43.25 5.25 38.25-8.75 106.75zM519.5 724.5q56.5 26.5-3.5 55.5-56.5-32 3.5-55.5zM516 809q95.5-61 3.5-102.5-106 41.5-3.5 102.5zM477 721.5l7-3-137.5-387-10.5-8.5zM530 704l60-340 10.5-11.5-63.5 354zM568.5 733.5l92.5-407.5-11 8.5-88 390z" />
<glyph unicode="&#xee;" glyph-name="constitutions" d="M448 193l510 172q-26-68 17-127.5l-511-172.5q4 72-16 128zM431 205q-12-68 28-156l532 176-4-20-536-180-336 268q-32 72-8 132l364 100 500-120v-16zM127 413l300-196 28 8-304 196zM103 577q-32 14 657 15l-4 60-18-4q12 40 52 12l-16-6 16-67q76 21 160 0l12 21h12q26-34 0-64h-14l-10 19q-84-17-160 0l-20-65 14-6q-34-16-42 12l16-4 4 56q-691 1-659 21zM145 575q18-6 622-8l1 13q-605 3-623-5zM454 191q28-48 20-116l472 172q-24 44-8 100z" />
<glyph unicode="&#xef;" glyph-name="eye" d="M464.5 305l18 47 47-22-22 42 32 12q108-4 122-82 1-83-88-95-108 7-109 98zM518 298.5q1.5-45 50.5-51.5 48 4.5 48 51.5-4 46.5-49.5 45l-22.5-5.5 26-44.5-47 28.5zM356 292q223.5-191 376.5-2-78 65-99.5 75.5t-64.5 20.5q-18 5-43.5-2t-169-92zM115.5 224q250 60-45 81 331-5 36 113 309-82 101 120 254-200 149 75 170-251 194 55 52-263 206-56-109-286 145-164-204-136 52-142-234-24-42-96-242 54-70-78-180 80-80-58-128 108-82-44-96 190-100-18-36 198-114 6 44 198-96 28 114 186-78 36 156 170-66 38 174 142-50 42 202 120-60 62zM522.5 406q34 12 68 1l-35 170zM632.5 184l-28-6 56-78zM396.5 346q16 11 36 22l-139 95zM358.5 323l26 15-163 43zM444.5 373q25 17 62 26l-108 139zM604.5 404q51-17 74-42l45 187zM691.5 354q26-14 43.5-32l99.5 84zM746.5 310l12-24 104 18zM758.5 274l-30-28 120-16zM720.5 236l-34-24 102-46zM325.5 290l18 21-124-14zM674.5 204l-28-14 78-68zM590.5 178l-31-4 14-89zM535.5 177l-23 4-21-84zM491.5 186.5l-16 8-54-81.5zM452.5 205.5l-22 10.5-69-71zM412.5 223.5l-22 14.5-76-60.5zM374.5 248.5l-10 9-95-48.5zM348.5 266l-18 12-89-23zM687.5 319q5-44-6-75l39 42z" />
<glyph unicode="&#xf0;" glyph-name="345-triangle" d="M326 319h340l-4-308h-340zM398 463l-80-140-140 79 84 138zM406 463l138 249 256-146-134-239z" />
<glyph unicode="&#xf1;" glyph-name="hourglass-scythe" d="M194 492h341.5q36-24 0-46.5h-341.5q-37.5 24 0 46.5zM494.5 437h39.5v-417.5h-39.5v417.5zM308 437h103q46.5-43.5 28.5-99.5t-58-75.75 0-44.75 65-82.75-48-116.25h-85.5q-65.5 57-45.25 114.75t58.75 83.5 1 46.5-55.25 76.75 35.75 97.5zM197.5 435h39v-417h-39v417zM195.5 11h342q35.5-24 0-46.5h-342q-37 24 0 46.5zM286.5 330q7-31 58.5-69h11q60.5 34.5 71 67zM290 61q14.5-38 69.5-34.5 44.5 0 66 32.5-64.5 5.5-71.5 34.5-5-31-64-32.5zM66 530.5q14 117.5 55 158.75t89 75.75 178.75 60.25 276.75-18.75l156.5-814 71.5 45q78.5 7 32-41.5l-142.5-45-89 476-96-96.5q-53.5-7-28.5 41.5l121 89.5-60.5 307-21.5-24-28.5 13.5 7.5 21q-135.5 3.5-233.5-19t-154.75-62.25-92.5-88-40.75-79.25zM588 813q-80 4-134 4t-120-18-118-52-104-98q40 40 98 76t142 58 236 14v16z" />
<glyph unicode="&#xf2;" glyph-name="carving-gavel" d="M108 309l344 258 272-306-340-278zM92 297l276-322q-240 68-276 322zM464 575l268-300-20 160-80 92zM652 531l72-80 164 116q92 166-84 98z" />
<glyph unicode="&#xf3;" glyph-name="shovel" d="M532 18q118-12 184 58l-35 254q-36-28-103-49l28-96q-10.5-51-52-12l-36 84q-74-20-117-11zM559 193.5q26.5-40.5 33 9l-131.5 376.5 73.5 26q36 28-12 36l-188-60q-24-28 11-36.5l77 20.5z" />
<glyph unicode="&#xf4;" glyph-name="square-quadrant" d="M164.5 4l53 177q-63 72-70 170l120 28 19-21 126 422-8 44 16 40 40 28q67 19.5 96-3.25t37.5-55-0.5-58.75-61-47l-20-16-16-32-40-108-36-48-56-84-20-20zM501.5 601l24 48 20 32 32 28 20 4 244-720-82 136q-76-56-126-70t-114.5-16-116 11-83.5 33-71 58l14 34q66-60 105.5-78t85.5-24 93.5-1 84 18 62 29 54.5 40l-40 88q-35-40-72-65t-76.5-34-85.5-3-72 20-50 34-52 56l17 34q46-70 89-91t70-26 69 2 76 32 71 73l-33 74-21 48-8 8-28 40-92 144zM735.5 361l13 20 122-38q6-90-67-172l-16 40q45 46 45 108l-70 18-11-24zM461.5 861l-22-30.5 6-33.5 9-22.5 27-13.5 32-4 28 8 12 28 8 28-12 28-21 19.5-31 4.5zM469.5 821.5l46-44.5 14 16.5-48 44zM429.5 733l-76-236v-36l76 116 52 120q-32 4-52 36zM268.5 309l-12 30-66-18q2-60 41-106zM495 434.5l33.5 46.5 5-56 38.5 33-10-56.5 53 9.5-33.5-42 58-14-53-19 53-33-58 0.5 29-51.5-48.5 28 14.5-56-43 32.5-10-46.5-28.5 42-29-47-9.5 51.5-38.5-28 19 47-48-19 19 47h-48l38.5 37.5-43 23.5 48 14-34 37.5 58-9.5-19.5 56 48.5-32.5 9.5 51zM456 377q18-13 29-1-13.5 19-29 1zM452 319q39.5-32 89 0-46-3-89 0zM512 375q10-10 30 2-22.5 18-30-2z" />
<glyph unicode="&#xf5;" glyph-name="acacia-branch" d="M300.5 73v18.5q9.5-17 94.25-27t172-1.5 107.75 30v-17q-26.5-20.5-109.5-30t-169 1.5-95.5 25.5zM338.5 96v16l23-10.5q118.5-19 187.25-9.5t81.75 21v-14q-24-14.5-85-21.75t-124.75 0.5-82.25 18.25zM270.5 42.5l2 19.5q10-19.5 111.75-32t204-1.5 122.25 33.5l-3-24q-14.5-16-119.5-27.5t-201.5 2-116 30zM448.5 125q28.5-13 52-2.5 0 81.5 1.25 103.25t3 57.75 24.75 43.5 38.75 19 26 38.5 17.5 58.75 37.5 51 53.5 32-24.5-1.25-75.25-51.25-35-71.75-41.75-43.25-47 6.75-9 43.25 5.5 50 18 46.25 41.5 56.75 72 61.5 3.25 14.5-95.75-71.75-62.25-94.75-12.25-56.75-9.5-31.5-37.75-22.5-51.25 11-15 57.5 1.5 66.5-20.25 48.75-17.25 0 8.75-42.5 5.5-74 17.5-74 58-20.5 49 2.5 24.75-32 8.75-76.75-14.5-102zM605.5 656.5q-7 51.5 57 100-23.5-69-57-100zM289.5 562.5q-3.5 66 60.5 114.5-23.5-68.5-60.5-114.5zM720 565q18 66 81.5 114.5-23-68.5-81.5-114.5zM318 531.5q17 66.5 55 130 3-84-55-130zM350 482.5q17 67 81 115.5-23.5-69.5-81-115.5zM335 396q18 66.5 81.5 115-23-69-81.5-115zM193.5 337q58 38.5 101 31-25.5-41-101-31zM185 549.5q46 0 107-94.5-83.5 64-107 94.5zM168 618q63-33 118-74-77.5 10.5-118 74zM170.5 493q74.5-18 124-76.5-70 14.5-124 76.5zM170.5 439.5q69.5-13 115.5-56.5-65 11-115.5 56.5zM237 713q-20-28 37.5-141-81 82.5-37.5 141zM425.5 692.5q83.5-13 122.5-63.5-62 20-122.5 63.5zM744 532.5q50.5 34.5 112 51.5-32.5-41-112-51.5zM720.5 512q54 0 86.5-5.25t-3.5-15.5-83 20.75zM674 553.5q-18 51.5 3.5 85.75t12.5 0-16-85.75zM638 536q-14.5 41.5-50.5 32.75t-16.25-17.25 66.75-15.5zM609 508.5q-57.5 7-84.5-13.75t0-13.75 84.5 27.5zM573 656.5q-39.5 62-119 113.5 122.5-10.5 119-113.5zM674 495q82.5-24.5 133-83-75.5 27.5-133 83zM641.5 453.5q47-3.5 102.75-51.75t-2-15.5-100.75 67.25zM515.5 587.5q-29 41.5-70.5 43.25t-10.75-15.5 81.25-27.75zM648.5 667q61.5 79 97.5 99.5t18-12-115.5-87.5zM623.5 398.5q86.5-17.5 100.75-69t-25.25-8.5-75.5 77.5z" />
<glyph unicode="&#xf6;" glyph-name="broken-column" d="M508.5 408q90-34 184-22 43-160 57-288-65.5-35-138-30-42 118-103 340zM274.5 210.5h259.5l2-137h-260.5zM225 19q-3.5 38.5 42.5 42.5h263.5q46.5 4 46.5-42.5h-352.5zM593.5 385.5l73-275.5 24 2-66 272zM648.5 382.5q28-108.5 57.5-264.5l23 3.5q-24.5 152.5-54.5 262.5zM540.5 396q32-136 86-296l24 3.5q-56 180.5-81 287zM305 191.5v-96h206l0.5 96h-206.5zM611.5 54q80.5-7 143 30 40 3 13-28-59.5-45-147.5-37-37.5 22-8.5 35zM299.5 520q9.5-20 25.5-6l34-8q10-18 26-4l34-12q6-24 24-14 11-10 28-14 6-28 13-15 11.5-37-8-218h-166q-14 190-10.5 291zM324.5 513q-0.5-104 10.5-261h23.5q-5.5 130-4 255zM383 501.5l3-250 22.5 0.5 6.5 237.5zM442 475.5q2.5-111.5-6-223.5h24.5q7 92 8.5 207.5zM506.5 420q82-32 184-24-8 10-48 21t-80 13-56-10z" />
<glyph unicode="&#xf7;" glyph-name="setting-maul" d="M392 301q28.5 53 58.25 100.5t65.75 43.5 60.25-44.75 47.75-91.25q-16-36-88.5-39.5t-143.5 31.5zM360 301q156-104 288-8-24-56 20-84 70-128.5-14-174-164.5-48-260.5-9-107.5 50-53.5 179 52 32 20 96zM512 553q95.5-61 3.5-102.5-106 41.5-3.5 102.5zM498 415q-52-64-46-82t28 2 18 80zM422 203q-72-56-48-96t38-18 10 114zM506 527q-20-16-14-28t14-6 0 34z" />
<glyph unicode="&#xf8;" glyph-name="trivium" d="M668 138.5q67-8.5 66.5-67.5-5-54-61.5-59-58 8-63.5 56.5-2.5 59.5 58.5 70zM308 140.5q65-8.5 66.5-67.5-5-54-61.5-61-62 8-63.5 58.5-2.5 59.5 58.5 70zM488 416.5q69-10.5 69-66.5-7.5-55-64-58-58 6-63.5 54.5-2.5 59.5 58.5 70z" />
<glyph unicode="&#xf9;" glyph-name="quadrivium" d="M668 138.5q67-8.5 66.5-67.5-5-54-61.5-59-58 8-63.5 56.5-2.5 59.5 58.5 70zM308 140.5q65-8.5 66.5-67.5-5-54-61.5-61-62 8-63.5 58.5-2.5 59.5 58.5 70zM314 430.5q69-10.5 69-66.5-7.5-55-64-58-58 6-63.5 54.5-2.5 59.5 58.5 70zM662 430.5q58.5-3 66.5-67.5-5-54-63.5-60-56 9-61.5 57.5-2.5 59.5 58.5 70z" />
<glyph unicode="&#xe900;" glyph-name="glyph81" horiz-adv-x="1026" d="M368 319q38.5 1 62.75 20.75t32.25 54.25 8.5 118 3 110q4.5 42 16.75 67.5t30.25 40.75 46 23.25q19 5 62 5h28v-78.5h-15.5q-52 0-69-18.75t-17-83.75q0-131-5.5-165.5-9-53.5-30.75-82.5t-68.25-51.5q55-23 79.75-70.25t24.75-154.75q0-97.5 2-116 4-34 20.25-47.5t63.75-13.5h15.5v-78.5h-28q-49 0-71 8-32 11.5-53 37.25t-27.25 65.25-6.75 129.5-8.5 124.5-32.25 54.5-62.75 21v81.5z" />
<glyph unicode="&#xe901;" glyph-name="glyph88" d="M156 661l354.5-712 358 712.5h-128.5l-170.5-335.5v341h-114v-338.5l-171.5 332.5h-128z" />
<glyph unicode="&#xe902;" glyph-name="glyph93" d="M528 299q50-3.5 71.5-71-10.5-57-71.5-64-57.5 3.5-72 67.5 14.5 60.5 72 67.5zM352.5 126v-2.5h347.5l-171.5 345zM526 745l346-734h-720z" />
</font>
</defs>
</svg>
